<svg xmlns="http://www.w3.org/2000/svg" xmlns:xlink="http://www.w3.org/1999/xlink" viewBox="0 0 2195.84 1672.74"><defs><style>.a,.i,.j,.l{fill:none;}.b{fill:#fff5e0;}.c{clip-path:url(#a);}.d{fill:#001a7d;}.e{fill:#3b4500;}.f{fill:#ff782e;}.g{fill:#f03d26;}.h{fill:#e5e8e8;}.i,.j,.l{stroke:#9da7c6;stroke-miterlimit:10;}.i{stroke-width:7px;}.j{stroke-width:2px;}.k{fill:#9da7c6;}.l{stroke-width:0.75px;}</style><clipPath id="a" transform="translate(580.37 443.8)"><rect class="a" width="1080" height="1080"/></clipPath></defs><rect class="b" x="580.98" y="444.63" width="1078.47" height="1081.53"/><g class="c"><rect class="d" x="462.37" y="446.8" width="100" height="100"/><rect class="e" x="462.37" y="571.8" width="100" height="100"/><rect class="f" x="462.37" y="696.8" width="100" height="100"/><rect class="g" x="462.37" y="821.8" width="100" height="100"/><rect class="b" x="462.37" y="946.8" width="100" height="100"/><rect class="h" x="462.37" y="1071.8" width="100" height="100"/><path class="i" d="M33.13-306.82S305.72,277.09,360.5,404s316.68,738.91,330,763" transform="translate(580.37 443.8)"/><line class="j" x1="289.47" y1="124.28" x2="0.86" y2="605.31"/><line class="j" x1="570.07" y1="124.28" x2="18.23" y2="1126.42"/><path class="j" d="M-579.51,325.86S-201.37,525-177.31,549,157.74,767.3,157.74,767.3" transform="translate(580.37 443.8)"/><path class="j" d="M361.17-306.16,174.1-30.9S83.24,96,49.84,161.51l-612-347.41" transform="translate(580.37 443.8)"/><polyline class="j" points="30.25 1619.48 403.05 992.8 630.2 605.31"/><path class="j" d="M259.62,181.55S19,513.67-55.09,632.89l-321.32,542.79" transform="translate(580.37 443.8)"/><polyline class="j" points="950.89 871.21 688.73 1293.5 480.55 1628.83"/><path class="j" d="M259.62,1166.32S121.92,861.26,105.89,851.91" transform="translate(580.37 443.8)"/><path class="j" d="M336.3-269.56s11.51,15.51,34.22,30.21S636.42-79,636.42-79L954.68,115.7" transform="translate(580.37 443.8)"/><path class="j" d="M355.84,391.58,740.65-248.7s27.08-15.74,49.59,0S1063.39-70.8,1063.39-70.8" transform="translate(580.37 443.8)"/><path class="j" d="M935.57-296.42,1441.17-149s30.7,18.42,18.42,49.13S790.24,1087.3,790.24,1087.3s-49.12,83.93-49.12,90.07" transform="translate(580.37 443.8)"/><line class="j" x1="1094.5" y1="573.82" x2="1416.78" y2="767.6"/><line class="j" x1="983.28" y1="758.05" x2="1313.98" y2="950.91"/><polyline class="j" points="1735.87 212.2 1356.24 875.76 1124.52 1280.47"/><line class="j" x1="1645.12" y1="1045.07" x2="1356.24" y2="875.76"/><line class="j" x1="1229.37" y1="1099.2" x2="1522.08" y2="1265"/><path class="j" d="M897.59,899s23.66,30.7,29.8,43c3.54,7.08,44.52,101.29,78.58,179.79,25,57.62,46.28,106.78,46.28,106.78" transform="translate(580.37 443.8)"/><line class="j" x1="2039.95" y1="1377.58" x2="1589.4" y2="1569.99"/><line class="j" x1="1645.12" y1="1047.34" x2="1818.89" y2="1463.55"/><path class="j" d="M1216,346.32l7.82,18.28c51.39,120.15,338.85,792.45,346.3,814.82" transform="translate(580.37 443.8)"/><path class="j" d="M1223.82,364.6s174.36-49,198.92-42.85,45,10.24,53.22,38.89,55.27,178.09,116.68,235.4c0,0,49.12,57.32,0,86s-192.41,100.3-192.41,100.3" transform="translate(580.37 443.8)"/><line class="j" x1="1608.05" y1="433.95" x2="1892.57" y2="603.84"/><path class="k" d="M-505.91,160.7c36.06,0,65.4,20.75,65.4,46.26s-29.34,46.25-65.4,46.25-65.41-20.75-65.41-46.25S-542,160.7-505.91,160.7m0-2c-37.23,0-67.41,21.61-67.41,48.26s30.18,48.25,67.41,48.25,67.4-21.6,67.4-48.25-30.18-48.26-67.4-48.26Z" transform="translate(580.37 443.8)"/><line class="l" x1="262.54" y1="192.41" x2="276.18" y2="201.28"/><path class="k" d="M-296.38-253.77l59.4,34-29.27,49.9L-325-201.2l28.62-52.57m-.3-1L-326-200.9l60,32.07,30-51.17-60.73-34.8Z" transform="translate(580.37 443.8)"/><path class="l" d="M-286.44-294.37S-98.12-183.16-89.25-179.74" transform="translate(580.37 443.8)"/><line class="l" x1="365.78" y1="147.83" x2="415.59" y2="179.9"/><line class="l" x1="391.49" y1="150.79" x2="516.13" y2="217.43"/><line class="l" x1="475.42" y1="151.47" x2="455.63" y2="184.91"/><polyline class="l" points="411.96 152.16 358.06 246.31 332.81 290.66 313.03 331.6 210 276.33"/><polyline class="l" points="503.85 241.76 421.51 194.46 408.95 217.32"/><line class="l" x1="394.22" y1="182.86" x2="419.47" y2="197.87"/><polyline class="l" points="372.84 221.98 399.23 237.44 482.47 279.29"/><path class="l" d="M-218.21-203.17s39.8,20,43.21,22.29,64.37,39.8,64.37,39.8" transform="translate(580.37 443.8)"/><path class="l" d="M-229.13-182.93s88.47,44.58,108.94,62.32" transform="translate(580.37 443.8)"/><line class="l" x1="338.96" y1="281.34" x2="396.95" y2="308.86"/><line class="l" x1="329.86" y1="299.76" x2="388.08" y2="328.42"/><line class="l" x1="358.29" y1="331.37" x2="378.98" y2="342.97"/><path class="l" d="M-173.18-152.91s-25.93,48.67-33.66,59.14l-.64-.32-11.64-5.82" transform="translate(580.37 443.8)"/><line class="l" x1="358.74" y1="374.36" x2="374.44" y2="348.43"/><line class="l" x1="386.72" y1="327.28" x2="441.3" y2="359.12"/><line class="l" x1="376.26" y1="347.52" x2="429.7" y2="377.32"/><line class="l" x1="363.75" y1="368.45" x2="417.42" y2="397.56"/><path class="l" d="M-60.14-225.23c.22.68,56.4,35,56.4,35" transform="translate(580.37 443.8)"/><polyline class="l" points="620.52 178.31 544.56 310 485.2 279.75"/><path class="l" d="M-109.27-134.94s82.79,39.57,86.65,45.49" transform="translate(580.37 443.8)"/><line class="l" x1="456.09" y1="504.68" x2="547.06" y2="347.3"/><polyline class="l" points="575.72 322.73 616.66 345.02 642.58 293.62 593 264.96 565.25 317.27 575.72 322.73 469.28 511.96"/><line class="l" x1="561.16" y1="281.34" x2="578.45" y2="292.71"/><line class="l" x1="593" y1="264.96" x2="631.67" y2="195.37"/><path class="l" d="M-64.69,96.36S34.93-85.13,36.29-98.78" transform="translate(580.37 443.8)"/><line class="l" x1="567.3" y1="338.65" x2="610.29" y2="359.58"/><line class="l" x1="581.18" y1="417.8" x2="681.7" y2="516.51"/><line class="l" x1="672.15" y1="533.79" x2="743.57" y2="584.28"/><line class="l" x1="652.59" y1="568.36" x2="722.19" y2="614.76"/><line class="l" x1="629.85" y1="606.12" x2="778.59" y2="702.55"/><polyline class="l" points="605.28 647.06 680.34 691.63 668.06 713.47 745.84 751.68"/><path class="l" d="M205.5,72.71C204.14,75,111.34,220.54,100,247.84" transform="translate(580.37 443.8)"/><polyline class="l" points="578.45 699.37 638.95 737.12 716.73 798.98"/><path class="l" d="M-115.64,590.81S55.4,337.45,67.68,301.06" transform="translate(580.37 443.8)"/><line class="l" x1="557.52" y1="733.94" x2="624.16" y2="788.07"/><line class="l" x1="529.32" y1="781.7" x2="594.82" y2="837.65"/><polyline class="l" points="504.3 823.09 570.26 873.13 637.58 908.15"/><line class="l" x1="593.46" y1="835.83" x2="661.69" y2="874.72"/><line class="l" x1="611.2" y1="812.63" x2="676.7" y2="849.93"/><polyline class="l" points="475.08 868.24 546.61 910.88 612.11 945.45"/><polyline class="l" points="457 898.94 522.95 945.91 521.13 951.82 586.63 983.55"/><polyline class="l" points="431.75 944.66 497.02 985.03 564.8 1015.5 663.74 1081.46 708.09 1109.43"/><line class="l" x1="325.31" y1="569.05" x2="570.94" y2="704.14"/><path class="l" d="M-126.1,195.87s-47.08,89.72-55.27,101.32-46.39,75.74-46.39,75.74" transform="translate(580.37 443.8)"/><polyline class="l" points="358.06 642.05 429.7 685.72 425.61 693.23 536.83 762.82"/><path class="l" d="M-240,248.75c3.41,2,64.81,37.52,64.81,37.52L-62.64,352.8" transform="translate(580.37 443.8)"/><polyline class="l" points="351.92 756.68 379.89 776.47 497.25 831.39"/><line class="l" x1="345.1" y1="811.95" x2="468.94" y2="879.16"/><polyline class="l" points="356.7 874.72 377.35 885.97 444.37 923.16"/><line class="l" x1="351.92" y1="936.81" x2="380.58" y2="887.68"/><line class="l" x1="711.84" y1="806.49" x2="918.24" y2="923.85"/><line class="l" x1="891.4" y1="748.49" x2="815.21" y2="865.4"/><line class="l" x1="916.42" y1="800.35" x2="857.06" y2="888.59"/><line class="l" x1="663.05" y1="876.77" x2="867.06" y2="1002.99"/><polyline class="l" points="633.03 917.71 731.28 972.97 740.84 960.69 854.78 1027.56"/><line class="l" x1="624.16" y1="934.76" x2="721.05" y2="991.4"/><line class="l" x1="585.95" y1="987.98" x2="685.91" y2="1047.69"/><line class="l" x1="603.69" y1="958.64" x2="809.75" y2="1094.42"/><path class="l" d="M176.16,493C165.93,512.12,47.21,695.66,47.21,695.66S-110.41,959.37-223,1127.22" transform="translate(580.37 443.8)"/><polyline class="l" points="673.97 1171.53 708.09 1109.43 777.68 1146.28"/><polyline class="l" points="690 837.19 755.51 875.06 774.95 841.29 869.79 693"/><line class="l" x1="829.54" y1="979.11" x2="880.25" y2="902.01"/><polyline class="l" points="487.7 1137.07 590.73 1202.57 699.22 1276.26"/><line class="l" x1="472.01" y1="1165.04" x2="573.33" y2="1229.18"/><line class="l" x1="459.38" y1="1186.54" x2="559" y2="1252.72"/><line class="l" x1="445.06" y1="1211.78" x2="545.7" y2="1274.55"/><polyline class="l" points="431.07 1239.41 500.66 1281.38 483.26 1307.99 513.63 1325.73"/><polygon class="l" points="415.84 1325.88 367.08 1396.09 392.79 1413.84 385.91 1427.82 419.65 1449.06 483.31 1348.88 444.51 1326.35 437.8 1337.28 415.84 1325.88"/><polyline class="l" points="646 1154.13 607.45 1214.51 617 1219.97 589.36 1262.95 672.26 1318.9"/><line class="l" x1="530.34" y1="1298.78" x2="638.83" y2="1370.42"/><line class="l" x1="504.76" y1="1340.74" x2="613.24" y2="1414.43"/><line class="l" x1="476.1" y1="1388.84" x2="585.61" y2="1457.41"/><line class="l" x1="447.78" y1="1432.17" x2="559" y2="1500.4"/><line class="l" x1="414.69" y1="1486.07" x2="527.27" y2="1550.55"/><polyline class="l" points="491.79 1459.12 482.24 1472.77 439.6 1445.47 422.54 1472.77 463.82 1497.33 457.68 1509.61"/><line class="l" x1="400.36" y1="1506.54" x2="511.92" y2="1574.09"/><line class="l" x1="380.92" y1="1537.24" x2="493.5" y2="1600.7"/><line class="l" x1="364.54" y1="1557.71" x2="450.51" y2="1607.86"/><polyline class="l" points="359.43 1065.43 394.8 1085.05 490.43 1138.09"/><line class="l" x1="355.33" y1="1150.37" x2="394.8" y2="1085.05"/><polyline class="l" points="428 1103.29 412.64 1132.97 470.98 1164.7"/><line class="l" x1="366.25" y1="1132.97" x2="458.7" y2="1187.22"/><line class="l" x1="356.35" y1="1160.61" x2="444.37" y2="1211.78"/><line class="l" x1="354.31" y1="1196.43" x2="426.97" y2="1237.37"/><line class="l" x1="344.07" y1="1228.16" x2="412.65" y2="1263.98"/><line class="l" x1="354.31" y1="1275.24" x2="393.2" y2="1294.68"/><line class="l" x1="439.94" y1="1110.12" x2="476.1" y2="1045.98"/><line class="l" x1="356.35" y1="1460.48" x2="408.21" y2="1492.89"/><polygon class="l" points="659.3 302.94 715.59 421.67 699.22 447.25 676.7 420.64 658.28 439.07 662.37 446.23 652.14 451.35 643.95 440.09 611.2 395.06 636.78 365.38 627.57 355.14 659.3 302.94"/><polygon class="l" points="675.68 194.46 756.53 159.66 803.61 259.96 782.12 299.88 755.51 263.03 721.73 281.45 675.68 194.46"/><line class="l" x1="671.58" y1="146.36" x2="690.35" y2="187.18"/><line class="l" x1="799.97" y1="252.23" x2="873.2" y2="144.31"/><polygon class="l" points="392.18 489.22 414.69 502.52 410.6 515.83 420.83 520.94 430.04 511.73 442.33 520.94 402.41 586.45 353.29 556.76 392.18 489.22"/><line class="l" x1="649.07" y1="1359.5" x2="722.41" y2="1361.55"/><line class="l" x1="626.55" y1="1397.71" x2="784.16" y2="1488.46"/><line class="l" x1="559.34" y1="1507.22" x2="680.45" y2="1581.59"/><path class="l" d="M166.61,1024.53s-71.3,124.86-82.22,136.12" transform="translate(580.37 443.8)"/><line class="l" x1="792.69" y1="1514.39" x2="736.06" y2="1605.13"/><line class="l" x1="703.31" y1="1543.38" x2="755.16" y2="1574.77"/><polyline class="l" points="536.49 1600.7 575.38 1542.02 619.73 1562.49 593.12 1605.82"/><polyline class="l" points="629.62 1606.16 646 1574.77 619.73 1562.49"/><polyline class="l" points="654.18 1414.09 631.67 1450.59 652.82 1462.87 663.39 1450.25 709.11 1479.25 672.26 1541 645.14 1523.68 624.16 1510.29 638.15 1486.41 611.54 1473.11 580.49 1520.18"/><line class="l" x1="630.98" y1="1549.87" x2="647.36" y2="1524.96"/><line class="l" x1="659.98" y1="1567.61" x2="672.26" y2="1541"/><line class="l" x1="677.04" y1="1535.54" x2="698.19" y2="1549.87"/><line class="l" x1="709.79" y1="1479.59" x2="731.63" y2="1492.21"/><polyline class="l" points="710.13 1446.15 720.03 1429.44 706.38 1419.55 732.65 1382.02"/><line class="l" x1="752.44" y1="1581.59" x2="785.19" y2="1600.36"/><polyline class="l" points="899.59 954.1 916.19 986.28 963.95 967.51 935.64 899.28"/><polyline class="l" points="1012.62 1024.83 824.26 1102.22 801.56 1111.94"/><path class="l" d="M245.42,658.47l45.37,106.1s63.8,138.85,74,164.44,69.6,161,69.6,161l30.7,67.89" transform="translate(580.37 443.8)"/><line class="l" x1="970.43" y1="1042.23" x2="1017.4" y2="1151.06"/><path class="l" d="M480.7,690.43S300,759.11,286.36,767.64s-132.71,66.53-132.71,66.53l-7.85,44.69-6.82,28" transform="translate(580.37 443.8)"/><polyline class="l" points="841.82 1137.41 935.29 1095.11 956.11 1142.53 860.58 1182.78"/><line class="l" x1="851.71" y1="1159.58" x2="887.19" y2="1144.23"/><line class="l" x1="876.96" y1="1120.35" x2="896.4" y2="1167.09"/><line class="l" x1="863.2" y1="1086.46" x2="877.64" y2="1121.72"/><path class="l" d="M279,575.12s27.17,16.83,29.22,22.29,12.17,29.34,12.17,29.34" transform="translate(580.37 443.8)"/><polyline class="l" points="923.24 1061.45 913.8 1039.84 922.67 1036.09 910.39 994.47 868.66 1003.45"/><line class="l" x1="791.55" y1="1125.13" x2="846.25" y2="1151.74"/><polyline class="l" points="783.82 1141.73 845.57 1174.94 839.77 1187.22 847.62 1190.97 837.72 1208.71 766.76 1169.02"/><line class="l" x1="752.44" y1="1192.68" x2="821.69" y2="1233.96"/><line class="l" x1="741.52" y1="1212.46" x2="799.86" y2="1246.24"/><line class="l" x1="707.06" y1="1264.32" x2="734.01" y2="1277.97"/><line class="l" x1="926.42" y1="1156.17" x2="938.48" y2="1181.31"/><path class="l" d="M505,737.51l-186.61,85.4S148.19,900.69,141,913" transform="translate(580.37 443.8)"/><polyline class="l" points="813.5 1240.44 826.81 1270.46 806.34 1280.69 817.6 1304.92"/><polyline class="l" points="852.39 1219.63 867.06 1260.91 846.59 1271.14 854.1 1286.49"/><polyline class="l" points="840.45 1293.32 852.05 1315.83 894.36 1298.78 884.8 1273.19"/><line class="l" x1="909.03" y1="1291.98" x2="894.36" y2="1298.78"/><line class="l" x1="852.05" y1="1315.83" x2="822.37" y2="1331.87"/><polyline class="l" points="812.82 1307.99 831.24 1357.45 740.15 1396.01"/><line class="l" x1="748" y1="1339.37" x2="766.76" y2="1384.75"/><polyline class="l" points="831.24 1357.45 865.36 1345.86 936.66 1504.15 818.28 1556.35"/><line class="l" x1="968.39" y1="1425.69" x2="913.12" y2="1451.27"/><line class="l" x1="763.35" y1="1446.5" x2="888.56" y2="1399.08"/><line class="l" x1="793.37" y1="1504.49" x2="911.41" y2="1447.86"/><line class="l" x1="936.66" y1="1504.15" x2="961.22" y2="1556.69"/><polyline class="l" points="852.39 1605.47 1014.78 1533.83 1196.96 1455.71"/><polyline class="l" points="919.6 1511.66 929.15 1533.83 912.44 1541.68 926.77 1572.72"/><polyline class="l" points="949.96 1562.83 959.17 1580.57 982.03 1571.02 998.75 1609.57"/><line class="l" x1="987.49" y1="1581.93" x2="1028.09" y2="1564.88"/><polyline class="l" points="918.24 1310.38 1069.71 1246.92 1095.64 1308.33 946.21 1374.51"/><line class="l" x1="992.15" y1="1280.01" x2="1019.22" y2="1342.1"/><polyline class="l" points="978.62 1361.21 1034.23 1489.14 1001.82 1504.15"/><line class="l" x1="1001.48" y1="1413.75" x2="1149.54" y2="1345.86"/><line class="l" x1="1023.99" y1="1465.6" x2="1172.74" y2="1394.98"/><line class="l" x1="1054.02" y1="1451.95" x2="1079.26" y2="1504.83"/><line class="l" x1="1034.23" y1="1489.14" x2="1050.95" y2="1518.14"/><line class="l" x1="1005.91" y1="1348.58" x2="1031.95" y2="1399.64"/><line class="l" x1="1088.13" y1="1374.51" x2="1108.26" y2="1424.66"/><polyline class="l" points="1143.74 1479.59 1166.26 1528.03 1219.48 1506.88"/><polyline class="l" points="1087.79 1603.77 1075.85 1571.36 1123.95 1553.62 1151.24 1605.13 1147.83 1595.24 1240.97 1547.25"/><line class="l" x1="554.34" y1="563.36" x2="496.57" y2="662.52"/><line class="l" x1="452.9" y1="638.41" x2="498.39" y2="530.15"/><line class="l" x1="488.84" y1="406.43" x2="507.49" y2="414.16"/><line class="l" x1="510.22" y1="372.31" x2="526.14" y2="381.87"/><path class="l" d="M631.26,685S871.89,823.71,880.53,831.44l-15.46,31.84,40,25.47" transform="translate(580.37 443.8)"/><polyline class="l" points="1303.97 1143.32 1286.68 1171.07 1238.92 1252.49"/><line class="l" x1="1337.17" y1="1160.61" x2="1318.52" y2="1190.18"/><line class="l" x1="1363.56" y1="1175.62" x2="1346.04" y2="1206.55"/><line class="l" x1="1392.9" y1="1193.59" x2="1327.62" y2="1304.35"/><line class="l" x1="1453.17" y1="1227.47" x2="1387.44" y2="1342.1"/><polyline class="l" points="1172.97 1195.18 1290.78 1262.95 1303.06 1241.58 1333.99 1257.04 1322.16 1279.33 1349.46 1296.16 1363.56 1273.87 1394.94 1291.16 1380.84 1315.72 1462.27 1366.67"/><path class="l" d="M583.5,766.85s168.31,94.61,192.87,111.44l65-112.35" transform="translate(580.37 443.8)"/><line class="l" x1="1452.71" y1="1384.86" x2="1356.73" y2="1322.09"/><line class="l" x1="1318.98" y1="1249.31" x2="1298.06" y2="1286.61"/><polyline class="l" points="1192.07 1227.02 1158.41 1284.79 1214.36 1410.79 1272.13 1388.5 1280.77 1394.41 1333.08 1307.99"/><polyline class="l" points="1344.68 1314.36 1292.33 1403.73 1287.14 1412.61 1202.31 1444.9"/><line class="l" x1="1400.4" y1="1474.93" x2="1291.01" y2="1405.56"/><path class="l" d="M748.62,902.4" transform="translate(580.37 443.8)"/><polygon class="l" points="1234.37 1447.18 1295.78 1425.34 1337.63 1521.78 1279.41 1545.89 1234.37 1447.18"/><line class="l" x1="1377.43" y1="1516.09" x2="1324.89" y2="1491.98"/><polyline class="l" points="1416.78 1363.03 1364.92 1454 1344.91 1484.02"/><line class="l" x1="1376.75" y1="1335.73" x2="1321.71" y2="1424.43"/><polygon class="l" points="1405.86 1559.99 1446.8 1544.98 1456.81 1569.08 1469.09 1565.9 1483.64 1603.2 1392.21 1611.84 1390.85 1596.38 1400.4 1592.28 1396.31 1579.55 1410.41 1572.72 1405.86 1559.99"/><line class="l" x1="1441.34" y1="1407.6" x2="1461.13" y2="1476.06"/><polyline class="l" points="1532.77 1446.27 1433.61 1487.66 1469.09 1565.9"/><line class="l" x1="1578.71" y1="1552.71" x2="1480" y2="1594.1"/><polygon class="l" points="1730.64 1332.1 1656.95 1364.16 1672.87 1398.51 1709.72 1382.13 1715.17 1393.96 1678.33 1409.88 1693.34 1442.17 1728.37 1427.16 1732.91 1435.35 1685.15 1458.1 1699.25 1490.85 1788.86 1454 1730.64 1332.1"/><line class="l" x1="1564.16" y1="1192.9" x2="1685.15" y2="1458.1"/><line class="l" x1="1699.25" y1="1490.85" x2="1711.99" y2="1516.55"/><line class="l" x1="1496.84" y1="1310.26" x2="1580.08" y2="1356.2"/><line class="l" x1="1629.2" y1="1335.73" x2="1509.34" y2="1386.68"/><line class="l" x1="1528.68" y1="1429.67" x2="1647.85" y2="1377.58"/><polyline class="l" points="1676.06 1438.99 1626.94 1460.39 1555.97 1491.3"/><line class="l" x1="1663.55" y1="1537.24" x2="1626.94" y2="1460.39"/><path class="l" d="M1124.8,746.38c-1.36,0-117.81,52.76-117.81,52.76" transform="translate(580.37 443.8)"/><line class="l" x1="1606" y1="1284.33" x2="1722.45" y2="1230.89"/><line class="l" x1="1635.57" y1="1269.78" x2="1672.87" y2="1357.11"/><polygon class="l" points="1389.48 931.35 1349.91 995.03 1572.8 1120.58 1607.82 1060.54 1389.48 931.35"/><polyline class="l" points="1287.14 993.67 1348.55 1033.24 1289.64 1133.09"/><polyline class="l" points="1580.53 1161.06 1455.73 1092.3 1348.55 1033.24"/><line class="l" x1="1394.03" y1="1192.22" x2="1455.73" y2="1092.3"/><line class="l" x1="1361.97" y1="1172.66" x2="1420.87" y2="1073.27"/><line class="l" x1="1325.58" y1="1153.33" x2="1384.48" y2="1054.17"/><line class="l" x1="1429.29" y1="1211.55" x2="1489.1" y2="1111.48"/><line class="l" x1="1465.9" y1="1231.11" x2="1523.22" y2="1129.68"/><line class="l" x1="1399.72" y1="1061.22" x2="1416.32" y2="1032.56"/><line class="l" x1="1431.33" y1="1078.28" x2="1447.71" y2="1050.98"/><line class="l" x1="1480.46" y1="1068.27" x2="1464.08" y2="1096.47"/><line class="l" x1="1511.85" y1="1086.01" x2="1497.29" y2="1115.35"/><line class="l" x1="1543.23" y1="1103.75" x2="1527.54" y2="1132.18"/><line class="l" x1="1382.66" y1="1014.59" x2="1367.2" y2="1042.8"/><line class="l" x1="1349.91" y1="995.03" x2="1333.76" y2="1023.24"/><line class="l" x1="1389.49" y1="931.35" x2="1346.27" y2="896.78"/><polyline class="l" points="1458.63 698.46 1657.86 806.72 1794.78 547.89"/><path class="l" d="M996.53,44.05" transform="translate(580.37 443.8)"/><polyline class="l" points="1505.93 617.49 1604.18 675.26 1587.81 706.19 1684.24 755.77"/><line class="l" x1="1731.09" y1="668.89" x2="1826.16" y2="721.66"/><line class="l" x1="1769.76" y1="595.2" x2="1868.47" y2="651.15"/><polyline class="l" points="1572.8 655.24 1652.86 518.33 1774.31 584.74"/><line class="l" x1="1682.88" y1="481.48" x2="1652.86" y2="518.33"/><line class="l" x1="1582.81" y1="481.94" x2="1648.76" y2="523.33"/><line class="l" x1="1744.29" y1="518.78" x2="1722.45" y2="556.08"/><line class="l" x1="1062.43" y1="802.62" x2="978.05" y2="937.49"/><line class="l" x1="1109.74" y1="832.19" x2="1009.21" y2="998.22"/><line class="l" x1="1167.96" y1="865.85" x2="1094.27" y2="985.03"/><path class="l" d="M572.13,582.17S650.6,461.4,652,460.49" transform="translate(580.37 443.8)"/><path class="l" d="M458,506.66s100.52,60,116.9,80.51c0,0,8.19,14.56,2.73,23.2S503.9,731.59,503.9,731.59" transform="translate(580.37 443.8)"/><line class="l" x1="1271.45" y1="1020.51" x2="1188.89" y2="970.93"/><line class="l" x1="1159.77" y1="1043.71" x2="1234.83" y2="1086.01"/><line class="l" x1="1119.29" y1="1117.4" x2="1189.34" y2="1166.52"/><polygon class="l" points="1197.07 675.26 1159.77 739.4 1271.22 801.26 1309.88 736.67 1197.07 675.26"/><line class="l" x1="1051.06" y1="646.83" x2="1173.65" y2="715.52"/><line class="l" x1="1107.01" y1="828.55" x2="1159.77" y2="739.4"/><line class="l" x1="1179.33" y1="627.04" x2="1137.71" y2="695.73"/><path class="l" d="M441.13,252.38s109.62,62.78,119.63,73.24" transform="translate(580.37 443.8)"/><line class="l" x1="1028.32" y1="783.29" x2="1065.62" y2="722.11"/><polyline class="l" points="1117.24 684.13 1100.79 713.5 1088.36 735.76"/><line class="l" x1="1155" y1="746.45" x2="1100.79" y2="713.5"/><line class="l" x1="1271.22" y1="801.26" x2="1220.5" y2="894.51"/><line class="l" x1="1355.14" y1="876.09" x2="1258.03" y2="824.91"/><line class="l" x1="1382.98" y1="830.25" x2="1286.68" y2="775.33"/><line class="l" x1="994.66" y1="229.48" x2="925.97" y2="340.93"/><polyline class="l" points="842.73 284.98 949.17 356.39 991.93 384.14"/><line class="l" x1="1019.22" y1="247.22" x2="817.03" y2="567.23"/><polyline class="l" points="826.13 306.81 935.07 376.86 977.83 407.34"/><polyline class="l" points="789.51 361.17 874.57 403.25 890.49 378.23"/><line class="l" x1="777.23" y1="482.85" x2="839.09" y2="386.41"/><polyline class="l" points="791.55 510.82 856.37 408.7 845.91 403.25 852.05 392.1"/><line class="l" x1="892.31" y1="448.05" x2="847.28" y2="422.8"/><path class="l" d="M480.25-173.83S265.09,183.47,261,185.75" transform="translate(580.37 443.8)"/><path class="l" d="M543,78.62S342.42-42.37,341.51-46l-109.4-67.55" transform="translate(580.37 443.8)"/><polygon class="l" points="917.78 708.92 941.89 762.6 1050.61 589.74 1012.39 572.46 991.02 612.03 979.64 604.75 917.78 708.92"/><polyline class="l" points="938.02 472.61 965.54 489.67 979.64 463.29 952.81 447.82"/><line class="l" x1="873.2" y1="580.19" x2="958.72" y2="637.96"/><line class="l" x1="867.97" y1="680.04" x2="912.78" y2="607.03"/><line class="l" x1="881.85" y1="712.33" x2="935.52" y2="622.95"/><polyline class="l" points="896.4 541.98 922.78 560.18 900.95 598.38"/><polyline class="l" points="1029.45 465.33 979.64 553.35 996.02 562.9 979.64 604.75"/><line class="l" x1="1107.92" y1="548.12" x2="1014.21" y2="491.49"/><line class="l" x1="1001.02" y1="514.69" x2="1092" y2="576.32"/><line class="l" x1="975.55" y1="317.27" x2="1016.49" y2="342.52"/><line class="l" x1="1001.48" y1="275.43" x2="1041.96" y2="301.35"/><polyline class="l" points="933.7 192.64 874.57 279.97 914.14 301.35 932.34 275.88 956.9 291.8"/><line class="l" x1="1039.69" y1="305.45" x2="1087.9" y2="337.29"/><line class="l" x1="1008.76" y1="357.76" x2="1056.75" y2="386.87"/><line class="l" x1="992.84" y1="443.73" x2="1033.77" y2="372.31"/><path class="l" d="M529.6-142.22s-93,146.7-94.84,154.89" transform="translate(580.37 443.8)"/><polyline class="l" points="1147.04 323.87 1102.01 390.96 1175.24 435.54"/><line class="l" x1="1099.5" y1="507.87" x2="1152.95" y2="421.89"/><line class="l" x1="1077.9" y1="352.75" x2="1113.15" y2="374.82"/><polyline class="l" points="1041.05 413.25 1089.27 441.45 1116.11 399.83"/><polyline class="l" points="1053.33 390.51 1102.46 419.62 1157.95 459.65"/><path class="l" d="M447-8.26s78.69,43.67,84.61,49.13" transform="translate(580.37 443.8)"/><line class="l" x1="1089.27" y1="441.45" x2="1124.75" y2="466.93"/><line class="l" x1="973.73" y1="218.57" x2="1018.76" y2="145.33"/><line class="l" x1="1018.31" y1="244.95" x2="1081.54" y2="141.24"/><line class="l" x1="1042.87" y1="258.6" x2="1115.65" y2="143.97"/><line class="l" x1="1061.52" y1="269.51" x2="1151.13" y2="132.14"/><line class="l" x1="1109.28" y1="299.99" x2="1210.27" y2="135.32"/><line class="l" x1="1191.62" y1="146.7" x2="1310.79" y2="212.65"/><line class="l" x1="1187.52" y1="172.85" x2="1294.87" y2="236.08"/><line class="l" x1="1173.42" y1="195.82" x2="1281.68" y2="256.78"/><line class="l" x1="1118.84" y1="183.54" x2="1162.96" y2="211.29"/><line class="l" x1="1037.87" y1="213.56" x2="1061.75" y2="227.89"/><polyline class="l" points="931.43 151.7 990.56 189.46 1035.59 215.84"/><path class="l" d="M515.73-227.51s141.92,89.16,152.83,97.8" transform="translate(580.37 443.8)"/><polyline class="l" points="1185.93 202.65 1166.6 235.85 1195.25 251.32 1189.8 260.87 1257.12 298.62"/><line class="l" x1="1213.45" y1="219.02" x2="1195.25" y2="251.32"/><line class="l" x1="1159.31" y1="150.79" x2="1203.2" y2="180.36"/><line class="l" x1="1241.65" y1="174.44" x2="1230.28" y2="197.19"/><line class="l" x1="1248.47" y1="151.25" x2="1321.71" y2="195.37"/><line class="l" x1="1379.93" y1="149.88" x2="1351.28" y2="189.91"/><line class="l" x1="1328.99" y1="152.61" x2="1306.24" y2="185.82"/><line class="l" x1="1439.98" y1="150.34" x2="1399.49" y2="213.11"/><polyline class="l" points="1425.86 146.7 1416.31 165.35 1441.33 179.9"/><polyline class="l" points="1568.7 163.07 1543.69 221.75 1563.25 231.3 1547.78 278.15 1513.66 269.06 1521.4 241.76 1513.21 236.31 1494.33 274.29"/><path class="l" d="M901-318.94" transform="translate(580.37 443.8)"/><line class="l" x1="1433.84" y1="160.34" x2="1476.37" y2="190.82"/><polygon class="l" points="1596.91 199.92 1550.06 290.44 1643.3 345.02 1691.98 255.41 1596.91 199.92"/><line class="l" x1="1709.49" y1="256.78" x2="1691.98" y2="255.41"/><line class="l" x1="1622.38" y1="143.06" x2="1822.98" y2="205.38"/><polygon class="l" points="1654.22 419.17 1688.79 439.18 1768.85 304.99 1871.2 336.38 1853 371.86 1837.99 363.22 1805.69 416.89 1776.58 400.06 1737.92 471.02 1820.7 520.6 1941.7 348.66 1804.78 245.86 1773.4 236.76 1753.84 247.68 1654.22 419.17"/><line class="l" x1="1720.18" y1="244.04" x2="1747.47" y2="258.37"/><line class="l" x1="1688.79" y1="439.18" x2="1737.92" y2="471.02"/><line class="l" x1="1642.17" y1="452.37" x2="1660.59" y2="422.8"/><line class="l" x1="1759.3" y1="523.33" x2="1776.58" y2="493.31"/><polyline class="l" points="1765.21 603.39 1739.74 587.01 1664.68 726.66 1690.16 743.49 1792.05 789.43"/><polyline class="l" points="1671.85 711.99 1629.66 689.82 1658.32 640.23 1698.8 662.52"/><polyline class="l" points="1736.1 591.11 1684.7 563.82 1666.05 602.02 1702.44 621.58 1710.17 607.94 1724.27 616.13"/><line class="l" x1="1823.89" y1="626.59" x2="1783.86" y2="698.46"/><path class="l" d="M901.91,267.4" transform="translate(580.37 443.8)"/><line class="l" x1="1713.35" y1="501.5" x2="1689.25" y2="537.43"/><line class="l" x1="1600.77" y1="1126.49" x2="1639.21" y2="1217.92"/><polygon class="l" points="1613.28 1574.54 1631.48 1611.39 1747.47 1604.56 1713.36 1532.24 1613.28 1574.54"/><line class="l" x1="1697.89" y1="1627.31" x2="1666.05" y2="1552.25"/><polyline class="l" points="1807.06 1555.89 1782.04 1566.36 1806.6 1604.56"/><line class="l" x1="1761.12" y1="1498.58" x2="1782.04" y2="1566.36"/><path class="l" d="M929.21,1011.11l-10-25.92-27.29-2.73s-10,3.63-12.74,8.64-99.62,175.12-99.62,175.12l57.77,25.93,164.21-20.47Z" transform="translate(580.37 443.8)"/><path class="l" d="M1142.31,465.72c-.91,3.64,92.57,228.8,92.57,228.8" transform="translate(580.37 443.8)"/><line class="l" x1="1874.38" y1="1105.57" x2="1699.25" y2="1181.08"/><line class="l" x1="1723.13" y1="1231.57" x2="1837.53" y2="1186.99"/><line class="l" x1="1813.88" y1="1250.22" x2="1741.1" y2="1277.51"/><line class="l" x1="1816.61" y1="1318.45" x2="1767.94" y2="1336.19"/><line class="l" x1="1787.04" y1="1260.23" x2="1808.42" y2="1308.9"/><polyline class="l" points="1757.02 1218.38 1766.12 1241.12 1758.62 1244.08 1766.8 1267.28"/><line class="l" x1="1813.43" y1="1220.65" x2="1766.12" y2="1241.12"/><polyline class="l" points="1783.4 1145.6 1789.32 1155.15 1818.88 1142.87"/><polyline class="l" points="1817.97 1175.62 1782.04 1191.54 1787.95 1205.19"/><line class="l" x1="1789.77" y1="1079.64" x2="1679.92" y2="1127.86"/><line class="l" x1="1757.93" y1="1000.49" x2="1648.76" y2="1056.44"/><line class="l" x1="1666.5" y1="1096.02" x2="1696.98" y2="1082.37"/><line class="l" x1="1678.33" y1="1041.89" x2="1710.63" y2="1113.76"/><line class="l" x1="1732.46" y1="937.27" x2="1814.79" y2="905.88"/><polyline class="l" points="1747.92 931.35 1740.65 912.7 1771.12 897.69 1761.57 880.41 1771.58 862.67 1790.23 854.93 1808.88 893.14"/><line class="l" x1="1777.04" y1="1045.53" x2="1822.98" y2="1026.88"/><polygon class="l" points="1265.31 363.67 1343.09 233.12 1607.37 387.32 1532.32 520.6 1265.31 363.67"/><line class="l" x1="1444.98" y1="244.04" x2="1348.09" y2="411.89"/><line class="l" x1="1474.55" y1="310.45" x2="1399.49" y2="441.45"/><path class="l" d="M967-132.44S871.89,23.13,871.44,29" transform="translate(580.37 443.8)"/><polyline class="l" points="1572.8 446.46 1492.74 400.06 1438.61 370.95 1387.67 342.29"/><line class="l" x1="1325.8" y1="262.69" x2="1404.95" y2="311.82"/><line class="l" x1="1396.08" y1="328.65" x2="1365.83" y2="309.54"/><line class="l" x1="1374.93" y1="293.62" x2="1317.16" y2="393.69"/><polygon class="l" points="1209.81 585.19 1226.19 556.54 1308.52 604.75 1292.14 632.5 1209.81 585.19"/><line class="l" x1="1333.54" y1="437.13" x2="1254.39" y2="572"/><polyline class="l" points="1313.07 471.48 1498.65 582.47 1461.81 649.1"/><line class="l" x1="1477.73" y1="658.88" x2="1273.95" y2="538.57"/><line class="l" x1="1439.07" y1="635.68" x2="1477.73" y2="569.27"/><line class="l" x1="1432.7" y1="543.8" x2="1395.17" y2="609.76"/><line class="l" x1="1408.13" y1="527.43" x2="1370.84" y2="595.66"/><line class="l" x1="1359.46" y1="499.68" x2="1322.16" y2="567.45"/><line class="l" x1="1308.52" y1="604.75" x2="1328.53" y2="570.64"/><line class="l" x1="1321.48" y1="456.92" x2="1207.08" y2="388.23"/><line class="l" x1="1173.88" y1="441.45" x2="1290.1" y2="511.05"/><polyline class="l" points="1230.73 402.79 1207.54 440.09 1298.51 496.27"/><line class="l" x1="1216.63" y1="466.47" x2="1225.28" y2="451.01"/><line class="l" x1="1197.53" y1="456.01" x2="1121.56" y2="589.29"/><line class="l" x1="1292.14" y1="632.5" x2="1262.58" y2="674.35"/><line class="l" x1="1368.56" y1="594.75" x2="1307.61" y2="700.73"/><line class="l" x1="1410.41" y1="620.22" x2="1347.86" y2="724.61"/><line class="l" x1="1448.85" y1="641.6" x2="1387.67" y2="749.4"/><line class="l" x1="1346.27" y1="633.41" x2="1387.67" y2="658.88"/><polyline class="l" points="1437.25 731.66 1405.86 714.38 1367.65 691.18"/><line class="l" x1="1144.31" y1="550.62" x2="1209.81" y2="585.19"/><polyline class="l" points="1240.29 480.57 1205.72 543.8 1226.19 556.54"/><line class="l" x1="1278.27" y1="531.75" x2="1228.46" y2="501.95"/><line class="l" x1="1392.44" y1="753.5" x2="1334.45" y2="864.94"/><line class="l" x1="1076.99" y1="811.95" x2="1111.79" y2="749.86"/><line class="l" x1="1045.6" y1="755.77" x2="1092.91" y2="782.15"/><line class="l" x1="611.2" y1="232.33" x2="636.67" y2="289.98"/><polyline class="l" points="470.98 475.91 397.63 436.68 358.97 418.48"/><line class="l" x1="1494.33" y1="957.28" x2="1528.9" y2="890.41"/><path class="l" d="M949.22,445.71,896,433.88s-49.58-16.38-20-57.31,48.67-51.86,60.49-49.59,116.45,47.31,138.29,72.33c0,0,10.46,8.19,0,30.48s-38.21,62.31-38.21,62.31-19.11,10.92-34.57-.45S949.22,445.71,949.22,445.71Z" transform="translate(580.37 443.8)"/><line class="l" x1="1611.92" y1="814" x2="1555.51" y2="911.79"/><polyline class="l" points="1564.77 754.93 1553.69 785.34 1497.74 881.77"/><path class="d" d="M578.08,463.91q-2,2-5.85,2h-5.35v8.8H564V452h8.15q4.06,0,6,2.14a6.68,6.68,0,0,1,1.76,4.7A6.85,6.85,0,0,1,578.08,463.91Zm-2.38-8.22a5.53,5.53,0,0,0-3.57-1.09h-5.25v8.7h5.28a5.42,5.42,0,0,0,3.62-1.1,4.2,4.2,0,0,0,1.28-3.35A3.82,3.82,0,0,0,575.7,455.69Z" transform="translate(580.37 443.8)"/><path class="d" d="M596.23,464a3.39,3.39,0,0,0-.87-2.36,3.27,3.27,0,0,0-2.56-1.06,3.5,3.5,0,0,0-2.19.78,5,5,0,0,0-1.52,2,10.82,10.82,0,0,0-.7,4.19v7.2h-2.76V458.5H588l.23,2.43a4.9,4.9,0,0,1,2.13-2.12,6.38,6.38,0,0,1,3-.72,5.34,5.34,0,0,1,4.61,2.36,6.15,6.15,0,0,1,1,3.52Z" transform="translate(580.37 443.8)"/><path class="d" d="M615.68,473.16a7,7,0,0,1-5,1.95,7.06,7.06,0,0,1-5.12-1.95,9.77,9.77,0,0,1,0-13.12,7.06,7.06,0,0,1,5.12-2,7,7,0,0,1,5,2,8.75,8.75,0,0,1,2.53,6.53A8.84,8.84,0,0,1,615.68,473.16Zm-2.08-11.55a4.47,4.47,0,0,0-6,0,6.37,6.37,0,0,0-1.83,5,6.45,6.45,0,0,0,1.83,5,4.5,4.5,0,0,0,6,0,7.72,7.72,0,0,0,0-10Z" transform="translate(580.37 443.8)"/><path class="d" d="M636,473.38a6.46,6.46,0,0,1-4.57,1.76,6.38,6.38,0,0,1-2.83-.64,4.77,4.77,0,0,1-2-1.66v8.48h-2.72V458.5h2.4l.19,2.15a4.55,4.55,0,0,1,2.09-1.86,6.65,6.65,0,0,1,2.87-.67,6.24,6.24,0,0,1,4.67,1.92,9,9,0,0,1,2.37,6.56Q638.5,471,636,473.38Zm-2-11.71a4.12,4.12,0,0,0-3-1.22,4,4,0,0,0-2.72,1.06c-1.22,1.07-1.82,2.77-1.82,5.12s.6,4,1.82,5.09a4,4,0,0,0,2.72,1,4.07,4.07,0,0,0,3-1.18,8.14,8.14,0,0,0,0-9.89Z" transform="translate(580.37 443.8)"/><path class="d" d="M645.63,467.46a5.33,5.33,0,0,0,1.64,4.07,4.32,4.32,0,0,0,3.1,1.21,4.59,4.59,0,0,0,3-1,3.73,3.73,0,0,0,1.34-1.95h2.62a6.48,6.48,0,0,1-2.46,3.87,7.28,7.28,0,0,1-4.48,1.41,7.1,7.1,0,0,1-5.12-2.11,8.5,8.5,0,0,1-2.4-6.34,8.89,8.89,0,0,1,2.4-6.49,7,7,0,0,1,5.15-2.08,6.63,6.63,0,0,1,5,2,8.85,8.85,0,0,1,2.34,6.46v1Zm7.84-5.73a4.11,4.11,0,0,0-3.1-1.31A4,4,0,0,0,647,462a5.52,5.52,0,0,0-1.3,3.25h9.12A5.06,5.06,0,0,0,653.47,461.73Z" transform="translate(580.37 443.8)"/><path class="d" d="M675.58,464a3.38,3.38,0,0,0-.86-2.36,3.27,3.27,0,0,0-2.56-1.06,3.5,3.5,0,0,0-2.19.78,5,5,0,0,0-1.52,2,10.82,10.82,0,0,0-.7,4.19v7.2H665V458.5h2.4l.23,2.43a4.9,4.9,0,0,1,2.13-2.12,6.38,6.38,0,0,1,3-.72,5.31,5.31,0,0,1,4.6,2.36,6.08,6.08,0,0,1,1,3.52Z" transform="translate(580.37 443.8)"/><path class="d" d="M704.13,474.69V452H707v20h11.71v2.65Z" transform="translate(580.37 443.8)"/><path class="d" d="M723.27,474.69v-2.33h5.85V460.81h-5.21V458.5h8v13.86h5.89v2.33Zm5.15-19.26v-3.84h3.87v3.84Z" transform="translate(580.37 443.8)"/><path class="d" d="M751.14,474.69h-3.23l-6.4-16.16h3L749.63,472l5-13.48h2.85Z" transform="translate(580.37 443.8)"/><path class="d" d="M763,474.69v-2.33h5.85V460.81h-5.22V458.5h8v13.86h5.89v2.33Zm5.15-19.26v-3.84H772v3.84Z" transform="translate(580.37 443.8)"/><path class="d" d="M793.31,474.69V464.42q0-3.87-3.55-3.87a3.51,3.51,0,0,0-2.13.72,4.91,4.91,0,0,0-1.52,1.87,10.16,10.16,0,0,0-.7,4.16v7.39h-2.75V458.5h2.4l.22,2.43a4.94,4.94,0,0,1,2.13-2.09,6.2,6.2,0,0,1,2.93-.75,5.62,5.62,0,0,1,4.25,1.56A6.11,6.11,0,0,1,796.1,464v10.65Z" transform="translate(580.37 443.8)"/><path class="d" d="M815.9,480.32q-1.95,1.92-6.62,1.92c-2.92,0-5-.61-6.24-1.85a4,4,0,0,1-.58-5,4.33,4.33,0,0,1,1.67-1.48,2.9,2.9,0,0,1-1.86-2.72,3.36,3.36,0,0,1,2.21-3.13,5.17,5.17,0,0,1-1.89-4.19,5.51,5.51,0,0,1,1.57-3.94,6.42,6.42,0,0,1,4.86-1.82,7.1,7.1,0,0,1,3.78,1,3.52,3.52,0,0,1,1.31-1.67,3.61,3.61,0,0,1,2-.61,7.87,7.87,0,0,1,.8.07v2.21a3.65,3.65,0,0,0-.61,0,2.08,2.08,0,0,0-1.31.42,1.85,1.85,0,0,0-.7,1.06,5.32,5.32,0,0,1,1.08,3.36,5.56,5.56,0,0,1-1.47,3.84,6.34,6.34,0,0,1-4.93,1.95,8.77,8.77,0,0,1-2.81-.51,2.39,2.39,0,0,0-1,.56,1.37,1.37,0,0,0-.46.94,1.16,1.16,0,0,0,.66,1.26,4,4,0,0,0,1.74.34h3.55c2.41,0,4.17.56,5.28,1.7a4.28,4.28,0,0,1,1.25,3.16A4.4,4.4,0,0,1,815.9,480.32Zm-1.47-4.3a1.52,1.52,0,0,0-.62-.73,6.19,6.19,0,0,0-.8-.45,3.17,3.17,0,0,0-1.07-.23l-1-.06-1.08,0h-3.48a3.32,3.32,0,0,0-1.46,1,2.38,2.38,0,0,0-.59,1.58,2.29,2.29,0,0,0,.67,1.7c.75.75,2.24,1.12,4.48,1.12s3.68-.39,4.45-1.15a2.3,2.3,0,0,0,.73-1.67A2.76,2.76,0,0,0,814.43,476Zm-2.7-14.73a4.24,4.24,0,0,0-5.47,0,3.35,3.35,0,0,0-1,2.56,3.41,3.41,0,0,0,1.07,2.57,3.68,3.68,0,0,0,2.7,1,3.72,3.72,0,0,0,2.71-1,3.45,3.45,0,0,0,1.07-2.57A3.38,3.38,0,0,0,811.73,461.29Z" transform="translate(580.37 443.8)"/><path class="d" d="M450.46,119.61l-4.28-9.44H441v9.44h-2.84V96.92h7.77a7.64,7.64,0,0,1,5.76,2,6.39,6.39,0,0,1,1.79,4.6,6.26,6.26,0,0,1-1.72,4.48,6.15,6.15,0,0,1-2.73,1.6l4.55,10Zm-4.54-20.07H441v8h4.93q4.6,0,4.61-4C450.53,100.88,449,99.54,445.92,99.54Z" transform="translate(580.37 443.8)"/><path class="d" d="M460.39,112.37a5.33,5.33,0,0,0,1.63,4.07,4.33,4.33,0,0,0,3.1,1.21,4.57,4.57,0,0,0,3-1,3.73,3.73,0,0,0,1.34-2h2.62a6.45,6.45,0,0,1-2.46,3.87,7.28,7.28,0,0,1-4.48,1.41,7.1,7.1,0,0,1-5.12-2.11,8.5,8.5,0,0,1-2.4-6.34,8.91,8.91,0,0,1,2.4-6.49,7,7,0,0,1,5.15-2.08,6.65,6.65,0,0,1,5,2,8.9,8.9,0,0,1,2.33,6.46v1Zm7.84-5.72a4.12,4.12,0,0,0-3.11-1.32,4,4,0,0,0-3.34,1.56,5.47,5.47,0,0,0-1.3,3.24h9.12A5.07,5.07,0,0,0,468.23,106.65Z" transform="translate(580.37 443.8)"/><path class="d" d="M486.53,119.61H483.3l-6.4-16.16h3L485,116.92l5-13.47h2.85Z" transform="translate(580.37 443.8)"/><path class="d" d="M500.07,112.37a5.33,5.33,0,0,0,1.63,4.07,4.32,4.32,0,0,0,3.1,1.21,4.57,4.57,0,0,0,3-1,3.73,3.73,0,0,0,1.34-2h2.62a6.45,6.45,0,0,1-2.46,3.87A7.28,7.28,0,0,1,504.8,120a7.1,7.1,0,0,1-5.12-2.11,8.5,8.5,0,0,1-2.4-6.34,8.91,8.91,0,0,1,2.4-6.49,7,7,0,0,1,5.15-2.08,6.61,6.61,0,0,1,5,2,8.87,8.87,0,0,1,2.34,6.46v1Zm7.83-5.72a4.08,4.08,0,0,0-3.1-1.32,4,4,0,0,0-3.34,1.56,5.47,5.47,0,0,0-1.3,3.24h9.12A5,5,0,0,0,507.9,106.65Z" transform="translate(580.37 443.8)"/><path class="d" d="M530,108.89a3.4,3.4,0,0,0-.87-2.37,3.27,3.27,0,0,0-2.56-1.06,3.45,3.45,0,0,0-2.19.79,5,5,0,0,0-1.52,2,10.84,10.84,0,0,0-.7,4.2v7.2h-2.75V103.42h2.4l.22,2.43a4.87,4.87,0,0,1,2.13-2.13,6.38,6.38,0,0,1,3-.72,5.33,5.33,0,0,1,4.61,2.37,6.1,6.1,0,0,1,1,3.52Z" transform="translate(580.37 443.8)"/><path class="d" d="M538,119.61v-2.34h5.85V105.72h-5.21v-2.3h8v13.85h5.89v2.34Zm5.15-19.27V96.5H547v3.84Z" transform="translate(580.37 443.8)"/><path class="d" d="M559.58,112.37a5.33,5.33,0,0,0,1.64,4.07,4.32,4.32,0,0,0,3.1,1.21,4.59,4.59,0,0,0,3-1,3.73,3.73,0,0,0,1.34-2h2.62a6.45,6.45,0,0,1-2.46,3.87,7.28,7.28,0,0,1-4.48,1.41,7.1,7.1,0,0,1-5.12-2.11,8.5,8.5,0,0,1-2.4-6.34,8.91,8.91,0,0,1,2.4-6.49,7,7,0,0,1,5.15-2.08,6.63,6.63,0,0,1,5,2,8.87,8.87,0,0,1,2.34,6.46v1Zm7.84-5.72a4.08,4.08,0,0,0-3.1-1.32,4,4,0,0,0-3.34,1.56,5.47,5.47,0,0,0-1.3,3.24h9.12A5,5,0,0,0,567.42,106.65Z" transform="translate(580.37 443.8)"/><path class="d" d="M610.37,117.78A8.71,8.71,0,0,1,604,120a9.13,9.13,0,0,1-6.43-2.14,7.15,7.15,0,0,1-2.37-5.44h3a4.8,4.8,0,0,0,1.57,3.58A5.87,5.87,0,0,0,604,117.4a5.93,5.93,0,0,0,4.16-1.31,3.45,3.45,0,0,0,1.15-2.66,3.34,3.34,0,0,0-.91-2.38,4.71,4.71,0,0,0-2.83-1.27l-3.49-.54a8,8,0,0,1-4.35-1.92,5.3,5.3,0,0,1-1.64-4.1A6,6,0,0,1,598,98.74a8.3,8.3,0,0,1,5.86-2.24,8.06,8.06,0,0,1,5.82,2.12,6.81,6.81,0,0,1,2.15,4.89h-3a4.53,4.53,0,0,0-1.09-2.78,5.64,5.64,0,0,0-7.87,0,3.67,3.67,0,0,0-.86,2.43,2.71,2.71,0,0,0,.94,2.22,4.57,4.57,0,0,0,2.39,1c.51.06,1.21.17,2.11.32l1.57.26a7.77,7.77,0,0,1,4.56,2.09,6.28,6.28,0,0,1-.21,8.75Z" transform="translate(580.37 443.8)"/><path class="d" d="M628.83,118.07a7,7,0,0,1-5.05,2,7.06,7.06,0,0,1-5.12-2,9.77,9.77,0,0,1,0-13.12,7.06,7.06,0,0,1,5.12-2,7,7,0,0,1,5.05,2,9.77,9.77,0,0,1,0,13.12Zm-2.08-11.55a4.5,4.5,0,0,0-6,0,6.37,6.37,0,0,0-1.83,5,6.45,6.45,0,0,0,1.83,5,4.5,4.5,0,0,0,6,0,7.72,7.72,0,0,0,0-10Z" transform="translate(580.37 443.8)"/><path class="d" d="M643.87,103a6.61,6.61,0,0,1,4.77,1.76,6.2,6.2,0,0,1,2,4.13H647.9a4.13,4.13,0,0,0-1.28-2.5,3.85,3.85,0,0,0-2.75-1,4.36,4.36,0,0,0-3,1.15q-1.75,1.61-1.76,5a6.4,6.4,0,0,0,1.76,5,4.37,4.37,0,0,0,3,1.18,3.85,3.85,0,0,0,2.75-1,4.17,4.17,0,0,0,1.31-2.5h2.73a6.26,6.26,0,0,1-2,4.16,6.53,6.53,0,0,1-4.74,1.73,7,7,0,0,1-5-2,9.78,9.78,0,0,1,0-13.06A7,7,0,0,1,643.87,103Z" transform="translate(580.37 443.8)"/><path class="d" d="M657.06,119.61v-2.34h5.85V105.72H657.7v-2.3h8v13.85h5.89v2.34Zm5.15-19.27V96.5h3.87v3.84Z" transform="translate(580.37 443.8)"/><path class="d" d="M689.41,119.83a2.28,2.28,0,0,1-1.73-.7,2.45,2.45,0,0,1-.67-1.76h-.07a4.93,4.93,0,0,1-2.16,1.93,7.07,7.07,0,0,1-3.18.72,5.67,5.67,0,0,1-4.16-1.42,4.57,4.57,0,0,1-1.44-3.35,5,5,0,0,1,1.46-3.56,6.14,6.14,0,0,1,4.33-1.72l5.06-.28V108.5a3,3,0,0,0-.84-2.33,3.8,3.8,0,0,0-2.72-.93,4,4,0,0,0-2.94,1,2.92,2.92,0,0,0-.86,1.89H676.8a4.71,4.71,0,0,1,1.5-3.33,6.77,6.77,0,0,1,5-1.79,7,7,0,0,1,3.7.88,4.9,4.9,0,0,1,2.06,2.32,5.88,5.88,0,0,1,.48,2.4v7.84c0,.72.32,1.09,1,1.09l.71-.1v2A4,4,0,0,1,689.41,119.83Zm-2.56-8-4.48.25a5,5,0,0,0-2.53.84,2.45,2.45,0,0,0-1.06,2.14,2.57,2.57,0,0,0,.8,1.94,3.47,3.47,0,0,0,2.43.75,4.57,4.57,0,0,0,3.4-1.31,5.1,5.1,0,0,0,1.44-3.65Z" transform="translate(580.37 443.8)"/><path class="d" d="M696.51,119.61V117.3h5.7V98.78H697V96.5h8v20.8h5.66v2.31Z" transform="translate(580.37 443.8)"/><path class="d" d="M728.64,118.17A6.23,6.23,0,0,1,724,120a6.65,6.65,0,0,1-2.87-.67,4.55,4.55,0,0,1-2.09-1.86l-.19,2.12h-2.4V96.5h2.71v8.8a4.9,4.9,0,0,1,2-1.66,6.74,6.74,0,0,1,7.41,1.12,9,9,0,0,1,2.47,6.78A9.11,9.11,0,0,1,728.64,118.17Zm-2.15-11.56a4,4,0,0,0-3-1.24,4,4,0,0,0-2.72,1Q719,108,719,111.51c0,2.33.61,4,1.83,5.09a4,4,0,0,0,2.72,1.05,4.1,4.1,0,0,0,3-1.15,6.77,6.77,0,0,0,1.66-5A6.62,6.62,0,0,0,726.49,106.61Z" transform="translate(580.37 443.8)"/><path class="d" d="M736.19,119.61V117.3h5.7V98.78h-5.22V96.5h8v20.8h5.66v2.31Z" transform="translate(580.37 443.8)"/><path class="d" d="M758,112.37a5.36,5.36,0,0,0,1.63,4.07,4.36,4.36,0,0,0,3.11,1.21,4.55,4.55,0,0,0,3-1,3.75,3.75,0,0,0,1.35-2h2.62a6.45,6.45,0,0,1-2.46,3.87,7.28,7.28,0,0,1-4.48,1.41,7.1,7.1,0,0,1-5.12-2.11,8.5,8.5,0,0,1-2.4-6.34,8.91,8.91,0,0,1,2.4-6.49,7,7,0,0,1,5.15-2.08,6.63,6.63,0,0,1,5,2,8.87,8.87,0,0,1,2.34,6.46v1Zm7.84-5.72a4.08,4.08,0,0,0-3.1-1.32,4,4,0,0,0-3.34,1.56,5.41,5.41,0,0,0-1.3,3.24h9.12A5,5,0,0,0,765.82,106.65Z" transform="translate(580.37 443.8)"/><path class="d" d="M803.77,99.58v20h-2.91v-20h-7.71V96.92h18.3v2.66Z" transform="translate(580.37 443.8)"/><path class="d" d="M828.29,119.83a2.28,2.28,0,0,1-1.73-.7,2.45,2.45,0,0,1-.67-1.76h-.07a4.93,4.93,0,0,1-2.16,1.93,7.07,7.07,0,0,1-3.18.72,5.67,5.67,0,0,1-4.16-1.42,4.57,4.57,0,0,1-1.44-3.35,5,5,0,0,1,1.45-3.56,6.17,6.17,0,0,1,4.34-1.72l5.06-.28V108.5a3,3,0,0,0-.84-2.33,3.8,3.8,0,0,0-2.72-.93,4,4,0,0,0-2.94,1,2.92,2.92,0,0,0-.86,1.89h-2.69a4.71,4.71,0,0,1,1.5-3.33,6.77,6.77,0,0,1,5-1.79,7,7,0,0,1,3.7.88,4.9,4.9,0,0,1,2.06,2.32,6.05,6.05,0,0,1,.48,2.4v7.84c0,.72.32,1.09,1,1.09l.71-.1v2A4,4,0,0,1,828.29,119.83Zm-2.56-8-4.48.25a4.92,4.92,0,0,0-2.53.84,2.43,2.43,0,0,0-1.06,2.14,2.57,2.57,0,0,0,.8,1.94,3.47,3.47,0,0,0,2.43.75,4.57,4.57,0,0,0,3.4-1.31,5.1,5.1,0,0,0,1.44-3.65Z" transform="translate(580.37 443.8)"/><path class="d" d="M847.68,118.17A6.23,6.23,0,0,1,843,120a6.65,6.65,0,0,1-2.87-.67,4.5,4.5,0,0,1-2.09-1.86l-.2,2.12h-2.4V96.5h2.72v8.8a4.9,4.9,0,0,1,2-1.66,6.74,6.74,0,0,1,7.41,1.12,9,9,0,0,1,2.46,6.78A9.1,9.1,0,0,1,847.68,118.17Zm-2.15-11.56a4,4,0,0,0-3-1.24,4,4,0,0,0-2.72,1Q838,108,838,111.51c0,2.33.61,4,1.83,5.09a4,4,0,0,0,2.72,1.05,4.1,4.1,0,0,0,3-1.15,6.77,6.77,0,0,0,1.66-5A6.62,6.62,0,0,0,845.53,106.61Z" transform="translate(580.37 443.8)"/><path class="d" d="M855.23,119.61V117.3h5.7V98.78h-5.22V96.5h8v20.8h5.66v2.31Z" transform="translate(580.37 443.8)"/><path class="d" d="M877,112.37a5.36,5.36,0,0,0,1.63,4.07,4.36,4.36,0,0,0,3.11,1.21,4.57,4.57,0,0,0,3-1,3.81,3.81,0,0,0,1.35-2h2.62a6.45,6.45,0,0,1-2.46,3.87,7.28,7.28,0,0,1-4.48,1.41,7.09,7.09,0,0,1-5.12-2.11,8.5,8.5,0,0,1-2.4-6.34,8.91,8.91,0,0,1,2.4-6.49,7,7,0,0,1,5.15-2.08,6.63,6.63,0,0,1,5,2,8.87,8.87,0,0,1,2.34,6.46v1Zm7.84-5.72a4.34,4.34,0,0,0-6.45.24,5.46,5.46,0,0,0-1.29,3.24h9.12A5.08,5.08,0,0,0,884.86,106.65Z" transform="translate(580.37 443.8)"/><path class="d" d="M414.68,288.74v7.39h9.79v2.69h-9.79v10h-2.85V286.11H427v2.63Z" transform="translate(580.37 443.8)"/><path class="d" d="M443.16,307.27a7,7,0,0,1-5.06,2,7.09,7.09,0,0,1-5.12-2,9.8,9.8,0,0,1,0-13.12,7.1,7.1,0,0,1,5.12-2,7,7,0,0,1,5.06,2,8.74,8.74,0,0,1,2.53,6.52A8.86,8.86,0,0,1,443.16,307.27Zm-2.08-11.56a4.51,4.51,0,0,0-6,0,6.41,6.41,0,0,0-1.82,5,6.5,6.5,0,0,0,1.82,5,4.51,4.51,0,0,0,6,0,7.76,7.76,0,0,0,0-10Z" transform="translate(580.37 443.8)"/><path class="d" d="M463.38,298.08a3.39,3.39,0,0,0-.86-2.37,3.3,3.3,0,0,0-2.56-1,3.5,3.5,0,0,0-2.19.78,4.92,4.92,0,0,0-1.52,2,10.8,10.8,0,0,0-.71,4.19v7.2h-2.75V292.61h2.4l.23,2.43a4.9,4.9,0,0,1,2.12-2.13,6.45,6.45,0,0,1,3-.72,5.31,5.31,0,0,1,4.6,2.37,6.06,6.06,0,0,1,1,3.52Z" transform="translate(580.37 443.8)"/><path class="d" d="M486.3,308.8h-3.2L478,301l-3.3,3.43v4.38H472V285.67h2.72v15.07l7.75-8.13h3.61L479.9,299Z" transform="translate(580.37 443.8)"/><path class="d" d="M511.06,308.8v-2.33h5.86V294.91H511.7v-2.3h8v13.86h5.89v2.33Zm5.16-19.26V285.7h3.87v3.84Z" transform="translate(580.37 443.8)"/><path class="d" d="M541.43,308.8V298.53q0-3.87-3.55-3.87a3.51,3.51,0,0,0-2.13.72,4.82,4.82,0,0,0-1.52,1.87,10.13,10.13,0,0,0-.7,4.16v7.39h-2.75V292.61h2.4l.22,2.43a4.94,4.94,0,0,1,2.13-2.09,6.21,6.21,0,0,1,2.93-.76,5.63,5.63,0,0,1,4.25,1.57,6.1,6.1,0,0,1,1.5,4.39V308.8Z" transform="translate(580.37 443.8)"/><path class="d" d="M573.4,288.74v7.39h9.79v2.69H573.4v10h-2.85V286.11h15.2v2.63Z" transform="translate(580.37 443.8)"/><path class="d" d="M602.26,298.08a3.44,3.44,0,0,0-.86-2.37,3.3,3.3,0,0,0-2.56-1,3.5,3.5,0,0,0-2.19.78,4.92,4.92,0,0,0-1.52,2,10.8,10.8,0,0,0-.71,4.19v7.2h-2.75V292.61h2.4l.22,2.43a5,5,0,0,1,2.13-2.13,6.45,6.45,0,0,1,3-.72,5.31,5.31,0,0,1,4.6,2.37,6.06,6.06,0,0,1,1,3.52Z" transform="translate(580.37 443.8)"/><path class="d" d="M612,301.57a5.34,5.34,0,0,0,1.63,4.06,4.37,4.37,0,0,0,3.11,1.22,4.57,4.57,0,0,0,3-1,3.81,3.81,0,0,0,1.35-1.95h2.62a6.52,6.52,0,0,1-2.46,3.87,7.28,7.28,0,0,1-4.48,1.41,7.13,7.13,0,0,1-5.12-2.11,8.5,8.5,0,0,1-2.4-6.34,8.93,8.93,0,0,1,2.4-6.5,7,7,0,0,1,5.15-2.08,6.63,6.63,0,0,1,5,2,8.85,8.85,0,0,1,2.34,6.46v1Zm7.84-5.73a4.12,4.12,0,0,0-3.1-1.31,4.06,4.06,0,0,0-3.35,1.55,5.51,5.51,0,0,0-1.29,3.25h9.12A5.11,5.11,0,0,0,619.83,295.84Z" transform="translate(580.37 443.8)"/><path class="d" d="M642.17,307.33a7.45,7.45,0,0,1-5.54,1.89,7.59,7.59,0,0,1-5.54-1.89,5,5,0,0,1-1.59-3.74h2.71a3.15,3.15,0,0,0,1.41,2.49,5.19,5.19,0,0,0,3.14.8,4.76,4.76,0,0,0,3.17-.93,2,2,0,0,0,.8-1.66c0-1.26-.8-2-2.4-2.24l-4.13-.61a4.93,4.93,0,0,1-3-1.5,4.15,4.15,0,0,1-1-2.79,4.22,4.22,0,0,1,1.32-3.1,6.5,6.5,0,0,1,4.92-1.86c2.43,0,4.22.73,5.35,2.18a5.42,5.42,0,0,1,1.12,3.07h-2.72a2.59,2.59,0,0,0-1-2,4,4,0,0,0-2.79-1,4.37,4.37,0,0,0-2.75.8,2.13,2.13,0,0,0-.89,1.69c0,1.11.71,1.79,2.14,2l4.38.67a5.32,5.32,0,0,1,2.85,1.39,4,4,0,0,1,1.22,3A4.53,4.53,0,0,1,642.17,307.33Z" transform="translate(580.37 443.8)"/><path class="d" d="M660.5,308.8V298.53c0-2.58-1.22-3.87-3.68-3.87a3.53,3.53,0,0,0-2.11.69,4.56,4.56,0,0,0-1.5,1.84,10.36,10.36,0,0,0-.64,4.16v7.45h-2.75V285.67h2.75v9.08a4.84,4.84,0,0,1,2.09-1.87,6.31,6.31,0,0,1,2.83-.69,5.64,5.64,0,0,1,4.26,1.57,6.1,6.1,0,0,1,1.5,4.39V308.8Z" transform="translate(580.37 443.8)"/><path class="d" d="M414.68,327.14v7.39h9.79v2.69h-9.79v10h-2.85V324.51H427v2.63Z" transform="translate(580.37 443.8)"/><path class="d" d="M443.16,345.67a7,7,0,0,1-5.06,1.95,7.09,7.09,0,0,1-5.12-1.95,9.8,9.8,0,0,1,0-13.12,7.1,7.1,0,0,1,5.12-2,7,7,0,0,1,5.06,2,8.74,8.74,0,0,1,2.53,6.52A8.86,8.86,0,0,1,443.16,345.67Zm-2.08-11.56a4.51,4.51,0,0,0-6,0,6.41,6.41,0,0,0-1.82,5,6.5,6.5,0,0,0,1.82,5,4.51,4.51,0,0,0,6,0,7.76,7.76,0,0,0,0-10Z" transform="translate(580.37 443.8)"/><path class="d" d="M463,345.67a7,7,0,0,1-5.06,1.95,7.09,7.09,0,0,1-5.12-1.95,9.8,9.8,0,0,1,0-13.12,7.1,7.1,0,0,1,5.12-2,7,7,0,0,1,5.06,2,8.74,8.74,0,0,1,2.53,6.52A8.86,8.86,0,0,1,463,345.67Zm-2.08-11.56a4.51,4.51,0,0,0-6,0,6.41,6.41,0,0,0-1.82,5,6.5,6.5,0,0,0,1.82,5,4.51,4.51,0,0,0,6,0,7.76,7.76,0,0,0,0-10Z" transform="translate(580.37 443.8)"/><path class="d" d="M482,347.2l-.19-2.11a4.58,4.58,0,0,1-2.1,1.86,6.76,6.76,0,0,1-2.86.67,6.27,6.27,0,0,1-4.71-1.89,9.08,9.08,0,0,1-2.33-6.59,8.9,8.9,0,0,1,2.49-6.72,6.52,6.52,0,0,1,4.61-1.83,6.32,6.32,0,0,1,2.8.64,5,5,0,0,1,2,1.67v-8.8h2.72v23.1ZM480,334a3.91,3.91,0,0,0-2.72-1,4.06,4.06,0,0,0-3,1.25,6.62,6.62,0,0,0-1.73,4.9,6.78,6.78,0,0,0,1.7,5,4,4,0,0,0,3,1.15,4,4,0,0,0,2.72-1q1.83-1.61,1.83-5.12T480,334Z" transform="translate(580.37 443.8)"/><path class="d" d="M503.29,345.76a6.2,6.2,0,0,1-4.67,1.86,6.8,6.8,0,0,1-2.87-.67,4.5,4.5,0,0,1-2.09-1.86l-.2,2.11h-2.4V324.1h2.72v8.8a4.92,4.92,0,0,1,2-1.67,6.56,6.56,0,0,1,2.84-.64,6.47,6.47,0,0,1,4.57,1.76,10.5,10.5,0,0,1,.1,13.41Zm-2.15-11.55a4.06,4.06,0,0,0-3-1.25,3.93,3.93,0,0,0-2.72,1.06q-1.83,1.59-1.83,5.09c0,2.32.61,4,1.83,5.08a3.93,3.93,0,0,0,2.72,1.06,4.1,4.1,0,0,0,3-1.15,6.79,6.79,0,0,0,1.66-5A6.58,6.58,0,0,0,501.14,334.21Z" transform="translate(580.37 443.8)"/><path class="d" d="M523.58,347.43a2.28,2.28,0,0,1-1.73-.71,2.43,2.43,0,0,1-.67-1.76h-.07A5,5,0,0,1,519,346.9a7.07,7.07,0,0,1-3.18.72,5.67,5.67,0,0,1-4.16-1.43,4.55,4.55,0,0,1-1.44-3.34,5.08,5.08,0,0,1,1.45-3.57,6.22,6.22,0,0,1,4.34-1.71l5.06-.29V336.1a3,3,0,0,0-.84-2.34,3.8,3.8,0,0,0-2.72-.93,4,4,0,0,0-2.94,1,2.92,2.92,0,0,0-.86,1.88H511a4.7,4.7,0,0,1,1.5-3.32,6.74,6.74,0,0,1,5-1.8,7.11,7.11,0,0,1,3.7.88,4.9,4.9,0,0,1,2.06,2.32,6.05,6.05,0,0,1,.48,2.4V344c0,.73.32,1.09,1,1.09l.71-.09v2A3.9,3.9,0,0,1,523.58,347.43Zm-2.56-8-4.48.26a4.82,4.82,0,0,0-2.53.83,2.45,2.45,0,0,0-1.06,2.15,2.55,2.55,0,0,0,.8,1.93,3.47,3.47,0,0,0,2.43.75,4.53,4.53,0,0,0,3.4-1.31,5.08,5.08,0,0,0,1.44-3.65Z" transform="translate(580.37 443.8)"/><path class="d" d="M542.74,336.48a3.39,3.39,0,0,0-.86-2.37,3.3,3.3,0,0,0-2.56-1.05,3.5,3.5,0,0,0-2.19.78,4.92,4.92,0,0,0-1.52,2,10.8,10.8,0,0,0-.71,4.19v7.2h-2.75V331h2.4l.23,2.43a4.9,4.9,0,0,1,2.12-2.13,6.45,6.45,0,0,1,3-.72,5.31,5.31,0,0,1,4.6,2.37,6.06,6.06,0,0,1,1,3.52Z" transform="translate(580.37 443.8)"/><path class="d" d="M736.39,597q-1.89,2-5.7,2h-7.61V576.33h7.61a7.1,7.1,0,0,1,5.44,2,5.42,5.42,0,0,1,1.41,3.87,5.72,5.72,0,0,1-.87,3.09,4.52,4.52,0,0,1-2.4,1.94,5.17,5.17,0,0,1,2.76,2.11,5.93,5.93,0,0,1,1,3.36A6.07,6.07,0,0,1,736.39,597Zm-2.95-17.22a4.57,4.57,0,0,0-2.91-.93h-4.67V586h4.73a4.55,4.55,0,0,0,2.95-.88,3.29,3.29,0,0,0,1.09-2.7A3.16,3.16,0,0,0,733.44,579.78Zm.43,9.79a4.76,4.76,0,0,0-3.21-1.08h-4.8v7.9h4.83a5.19,5.19,0,0,0,3.23-.94,3.52,3.52,0,0,0,1.22-3A3.65,3.65,0,0,0,733.87,589.57Z" transform="translate(580.37 443.8)"/><path class="d" d="M743.14,599v-2.33H749V585.13h-5.21v-2.31h8v13.86h5.88V599Zm5.15-19.26v-3.84h3.87v3.84Z" transform="translate(580.37 443.8)"/><path class="d" d="M762.75,599v-2.3h5.7V578.18h-5.22v-2.27h8v20.8h5.67V599Z" transform="translate(580.37 443.8)"/><path class="d" d="M782.59,599v-2.3h5.7V578.18h-5.22v-2.27h8v20.8h5.67V599Z" transform="translate(580.37 443.8)"/><path class="d" d="M809.47,602.34c-.93,2.33-2.43,3.49-4.48,3.49a5.83,5.83,0,0,1-2.91-.61v-2.34a6.74,6.74,0,0,0,2.34.48,2.41,2.41,0,0,0,2.46-1.63L808,599l-7.07-16.19h3.36l5.21,12.86,4.84-12.86h3.1Z" transform="translate(580.37 443.8)"/><path class="d" d="M835.58,597q-1.87,2-5.69,2h-7.62V576.33h7.62a7.1,7.1,0,0,1,5.44,2,5.42,5.42,0,0,1,1.41,3.87,5.72,5.72,0,0,1-.87,3.09,4.52,4.52,0,0,1-2.4,1.94,5.11,5.11,0,0,1,2.75,2.11,5.87,5.87,0,0,1,1,3.36A6.08,6.08,0,0,1,835.58,597Zm-2.94-17.22a4.57,4.57,0,0,0-2.91-.93h-4.67V586h4.73a4.55,4.55,0,0,0,3-.88,3.29,3.29,0,0,0,1.09-2.7A3.16,3.16,0,0,0,832.64,579.78Zm.43,9.79a4.76,4.76,0,0,0-3.21-1.08h-4.8v7.9h4.83a5.19,5.19,0,0,0,3.23-.94,3.52,3.52,0,0,0,1.22-3A3.65,3.65,0,0,0,833.07,589.57Z" transform="translate(580.37 443.8)"/><path class="d" d="M853.79,597.48a7,7,0,0,1-5,1.95,7.06,7.06,0,0,1-5.12-1.95,9.77,9.77,0,0,1,0-13.12,7.06,7.06,0,0,1,5.12-2,7,7,0,0,1,5,2,8.75,8.75,0,0,1,2.53,6.53A8.84,8.84,0,0,1,853.79,597.48Zm-2.08-11.55a4.47,4.47,0,0,0-6,0,6.37,6.37,0,0,0-1.83,5,6.45,6.45,0,0,0,1.83,5,4.5,4.5,0,0,0,6,0,7.72,7.72,0,0,0,0-10Z" transform="translate(580.37 443.8)"/><path class="d" d="M873.63,597.48a7,7,0,0,1-5,1.95,7.06,7.06,0,0,1-5.12-1.95,9.77,9.77,0,0,1,0-13.12,7.06,7.06,0,0,1,5.12-2,7,7,0,0,1,5,2,8.75,8.75,0,0,1,2.53,6.53A8.84,8.84,0,0,1,873.63,597.48Zm-2.08-11.55a4.47,4.47,0,0,0-6,0,6.37,6.37,0,0,0-1.83,5,6.45,6.45,0,0,0,1.83,5,4.5,4.5,0,0,0,6,0,7.72,7.72,0,0,0,0-10Z" transform="translate(580.37 443.8)"/><path class="d" d="M894.08,597.54a7.44,7.44,0,0,1-5.54,1.89,7.55,7.55,0,0,1-5.53-1.89,5,5,0,0,1-1.6-3.74h2.72a3.1,3.1,0,0,0,1.41,2.49,5.09,5.09,0,0,0,3.13.8,4.79,4.79,0,0,0,3.17-.92,2.06,2.06,0,0,0,.8-1.67c0-1.26-.8-2-2.4-2.24l-4.13-.61a4.91,4.91,0,0,1-3-1.5,4.14,4.14,0,0,1-1-2.78,4.27,4.27,0,0,1,1.31-3.11,6.51,6.51,0,0,1,4.93-1.85q3.65,0,5.34,2.17a5.35,5.35,0,0,1,1.12,3.07h-2.72a2.59,2.59,0,0,0-1-2,4,4,0,0,0-2.78-1,4.37,4.37,0,0,0-2.75.8,2.16,2.16,0,0,0-.9,1.7c0,1.1.71,1.78,2.14,2l4.39.67a5.27,5.27,0,0,1,2.84,1.4,3.89,3.89,0,0,1,1.22,3A4.53,4.53,0,0,1,894.08,597.54Z" transform="translate(580.37 443.8)"/><path class="d" d="M909.79,584.82a5.79,5.79,0,0,1-3,2.39l-1-1.86a3.86,3.86,0,0,0,2-1.62,6.06,6.06,0,0,0,.51-2.76H906v-4.64h4.67V581A7.67,7.67,0,0,1,909.79,584.82Z" transform="translate(580.37 443.8)"/><path class="d" d="M933.76,597.54a7.44,7.44,0,0,1-5.54,1.89,7.55,7.55,0,0,1-5.53-1.89,5,5,0,0,1-1.6-3.74h2.72a3.1,3.1,0,0,0,1.41,2.49,5.09,5.09,0,0,0,3.13.8,4.81,4.81,0,0,0,3.17-.92,2.06,2.06,0,0,0,.8-1.67c0-1.26-.8-2-2.4-2.24l-4.13-.61a4.91,4.91,0,0,1-3-1.5,4.14,4.14,0,0,1-1-2.78,4.23,4.23,0,0,1,1.31-3.11,6.51,6.51,0,0,1,4.93-1.85q3.64,0,5.34,2.17a5.35,5.35,0,0,1,1.12,3.07h-2.72a2.59,2.59,0,0,0-1-2,4,4,0,0,0-2.78-1,4.42,4.42,0,0,0-2.76.8,2.18,2.18,0,0,0-.89,1.7c0,1.1.71,1.78,2.14,2l4.39.67a5.27,5.27,0,0,1,2.84,1.4,3.93,3.93,0,0,1,1.22,3A4.53,4.53,0,0,1,933.76,597.54Z" transform="translate(580.37 443.8)"/><path class="d" d="M735.76,635.67A8.41,8.41,0,0,1,722,631.49a27.83,27.83,0,0,1,0-10.81,8.45,8.45,0,0,1,8.11-6.37,8.15,8.15,0,0,1,5.67,2.11,7.42,7.42,0,0,1,2.46,5.41h-3a4.81,4.81,0,0,0-1.31-3.2,4.92,4.92,0,0,0-3.84-1.63,5.16,5.16,0,0,0-3.84,1.73A5.53,5.53,0,0,0,725,621a10.62,10.62,0,0,0-.5,2.37c0,.64-.06,1.53-.06,2.69s0,2,.06,2.68a10.62,10.62,0,0,0,.5,2.37,5.64,5.64,0,0,0,1.29,2.31,5.33,5.33,0,0,0,7.52.32,4.82,4.82,0,0,0,1.54-3.59h2.94A7.59,7.59,0,0,1,735.76,635.67Z" transform="translate(580.37 443.8)"/><path class="d" d="M755.65,637.64a2.3,2.3,0,0,1-1.73-.71,2.43,2.43,0,0,1-.67-1.76h-.06a5,5,0,0,1-2.16,1.94,7.11,7.11,0,0,1-3.19.72,5.71,5.71,0,0,1-4.16-1.42,4.57,4.57,0,0,1-1.44-3.35,5.09,5.09,0,0,1,1.46-3.57,6.18,6.18,0,0,1,4.33-1.71l5.06-.29v-1.18a3.06,3.06,0,0,0-.83-2.34,3.86,3.86,0,0,0-2.72-.92,4,4,0,0,0-2.95,1,2.92,2.92,0,0,0-.86,1.89H743a4.72,4.72,0,0,1,1.51-3.33,6.72,6.72,0,0,1,5-1.79,7,7,0,0,1,3.69.88A4.93,4.93,0,0,1,755.3,624a6,6,0,0,1,.48,2.4v7.84q0,1.08,1,1.08l.7-.09v2A3.9,3.9,0,0,1,755.65,637.64Zm-2.56-8-4.48.25a5,5,0,0,0-2.53.83,2.46,2.46,0,0,0-1.05,2.15,2.5,2.5,0,0,0,.8,1.93,3.43,3.43,0,0,0,2.43.76,4.5,4.5,0,0,0,3.39-1.32,5.06,5.06,0,0,0,1.44-3.64Z" transform="translate(580.37 443.8)"/><path class="d" d="M777.89,637.41h-3.2l-5.09-7.8L766.31,633v4.38h-2.72V614.28h2.72v15.07l7.74-8.13h3.62l-6.18,6.43Z" transform="translate(580.37 443.8)"/><path class="d" d="M784.55,630.18a5.33,5.33,0,0,0,1.63,4.07,4.33,4.33,0,0,0,3.1,1.21,4.57,4.57,0,0,0,3-1,3.73,3.73,0,0,0,1.34-2h2.63a6.54,6.54,0,0,1-2.47,3.87,7.28,7.28,0,0,1-4.48,1.41,7.1,7.1,0,0,1-5.12-2.11,8.5,8.5,0,0,1-2.4-6.34,8.89,8.89,0,0,1,2.4-6.49,7,7,0,0,1,5.15-2.08,6.65,6.65,0,0,1,5,2,8.89,8.89,0,0,1,2.33,6.46v1Zm7.84-5.73a4.15,4.15,0,0,0-3.11-1.31,4,4,0,0,0-3.34,1.55,5.52,5.52,0,0,0-1.3,3.25h9.12A5.1,5.1,0,0,0,792.39,624.45Z" transform="translate(580.37 443.8)"/><path class="d" d="M814.5,626.69a3.37,3.37,0,0,0-.87-2.36,3.27,3.27,0,0,0-2.56-1.06,3.5,3.5,0,0,0-2.19.78,5,5,0,0,0-1.52,2,10.82,10.82,0,0,0-.7,4.19v7.2h-2.75V621.22h2.4l.22,2.43a4.9,4.9,0,0,1,2.13-2.12,6.41,6.41,0,0,1,3-.72,5.34,5.34,0,0,1,4.61,2.36,6.15,6.15,0,0,1,1,3.52Z" transform="translate(580.37 443.8)"/><path class="d" d="M829.31,640.74c-.93,2.33-2.43,3.49-4.48,3.49a5.83,5.83,0,0,1-2.91-.61v-2.33a6.94,6.94,0,0,0,2.34.47,2.42,2.42,0,0,0,2.46-1.63l1.09-2.72-7.07-16.19h3.36l5.21,12.86,4.84-12.86h3.1Z" transform="translate(580.37 443.8)"/><path class="d" d="M676.77,913.66v20h-2.91v-20h-7.72V911h18.31v2.66Z" transform="translate(580.37 443.8)"/><path class="d" d="M699.33,933.69V923.42q0-3.87-3.68-3.87a3.53,3.53,0,0,0-2.11.69,4.65,4.65,0,0,0-1.51,1.84,10.54,10.54,0,0,0-.64,4.16v7.45h-2.75V910.56h2.75v9.08a4.93,4.93,0,0,1,2.1-1.87,6.31,6.31,0,0,1,2.83-.69,5.67,5.67,0,0,1,4.26,1.57,6.1,6.1,0,0,1,1.5,4.39v10.65Z" transform="translate(580.37 443.8)"/><path class="d" d="M710.34,926.46a5.29,5.29,0,0,0,1.63,4.06,4.34,4.34,0,0,0,3.1,1.22,4.57,4.57,0,0,0,3-1,3.73,3.73,0,0,0,1.34-1.95H722a6.54,6.54,0,0,1-2.47,3.87,7.28,7.28,0,0,1-4.48,1.41A7.15,7.15,0,0,1,710,932a8.52,8.52,0,0,1-2.4-6.34,8.93,8.93,0,0,1,2.4-6.5,7,7,0,0,1,5.15-2.08,6.66,6.66,0,0,1,5,2,8.89,8.89,0,0,1,2.33,6.46v1Zm7.84-5.73a4.15,4.15,0,0,0-3.11-1.31,4,4,0,0,0-3.34,1.55,5.52,5.52,0,0,0-1.3,3.25h9.12A5.1,5.1,0,0,0,718.18,920.73Z" transform="translate(580.37 443.8)"/><path class="d" d="M761.38,931.68q-1.89,2-5.7,2h-7.62V911h7.62a7.11,7.11,0,0,1,5.44,2,5.42,5.42,0,0,1,1.41,3.87,5.72,5.72,0,0,1-.87,3.09,4.45,4.45,0,0,1-2.4,1.93A5.17,5.17,0,0,1,762,924a5.87,5.87,0,0,1,1,3.36A6.11,6.11,0,0,1,761.38,931.68Zm-3-17.22a4.57,4.57,0,0,0-2.91-.93h-4.67v7.14h4.73a4.55,4.55,0,0,0,2.95-.88,3.3,3.3,0,0,0,1.09-2.71A3.14,3.14,0,0,0,758.43,914.46Zm.43,9.79a4.76,4.76,0,0,0-3.21-1.09h-4.8v7.91h4.83a5.13,5.13,0,0,0,3.23-1,3.51,3.51,0,0,0,1.22-3A3.64,3.64,0,0,0,758.86,924.25Z" transform="translate(580.37 443.8)"/><path class="d" d="M768.13,933.69v-2.33H774V919.8h-5.21v-2.3h8v13.86h5.88v2.33Zm5.15-19.26v-3.84h3.87v3.84Z" transform="translate(580.37 443.8)"/><path class="d" d="M792.22,938.11a2.78,2.78,0,0,0,2.23-.85,3.33,3.33,0,0,0,.72-2.22V919.8h-6.43v-2.3h9.18v17.73a5.32,5.32,0,0,1-1.39,3.77,5.15,5.15,0,0,1-4,1.51,9.28,9.28,0,0,1-3.8-.77v-2.43A8.86,8.86,0,0,0,792.22,938.11Zm2.24-23.68v-3.84h3.84v3.84Z" transform="translate(580.37 443.8)"/><path class="d" d="M819.26,932.16a7,7,0,0,1-5,2,7.06,7.06,0,0,1-5.12-2,9.77,9.77,0,0,1,0-13.12,7.06,7.06,0,0,1,5.12-2,7,7,0,0,1,5,2,8.74,8.74,0,0,1,2.53,6.52A8.86,8.86,0,0,1,819.26,932.16Zm-2.08-11.56a4.5,4.5,0,0,0-6,0,6.38,6.38,0,0,0-1.83,5,6.47,6.47,0,0,0,1.83,5,4.5,4.5,0,0,0,6,0,7.73,7.73,0,0,0,0-10Z" transform="translate(580.37 443.8)"/><path class="d" d="M838.17,933.69l-.22-2.43a4.3,4.3,0,0,1-2,2.08,6.26,6.26,0,0,1-2.93.77,5.5,5.5,0,0,1-4.13-1.63,6,6,0,0,1-1.56-4.32V917.5h2.75v10.27q0,3.87,3.58,3.87a3.85,3.85,0,0,0,3-1.36,4.83,4.83,0,0,0,1.23-3.37V917.5h2.75v16.19Z" transform="translate(580.37 443.8)"/><path class="d" d="M620,769.61l-9.09-18.24v18.24h-2.78V746.92h3.55l9,18.34V746.92h2.76v22.69Z" transform="translate(580.37 443.8)"/><path class="d" d="M640.74,768.08a7,7,0,0,1-5,1.95,7.06,7.06,0,0,1-5.12-1.95,9.77,9.77,0,0,1,0-13.12,7.06,7.06,0,0,1,5.12-2,7,7,0,0,1,5,2,8.74,8.74,0,0,1,2.53,6.52A8.86,8.86,0,0,1,640.74,768.08Zm-2.08-11.56a4.5,4.5,0,0,0-6,0,6.38,6.38,0,0,0-1.83,5,6.47,6.47,0,0,0,1.83,5,4.5,4.5,0,0,0,6,0,7.73,7.73,0,0,0,0-10Z" transform="translate(580.37 443.8)"/><path class="d" d="M659.66,769.61l-.23-2.43a4.3,4.3,0,0,1-2,2.08,6.26,6.26,0,0,1-2.93.77,5.5,5.5,0,0,1-4.13-1.63,6,6,0,0,1-1.56-4.32V753.42h2.75v10.27q0,3.87,3.58,3.87a3.85,3.85,0,0,0,3-1.36,4.83,4.83,0,0,0,1.23-3.37v-9.41h2.75v16.19Z" transform="translate(580.37 443.8)"/><path class="d" d="M680.81,758.89a3.4,3.4,0,0,0-.87-2.37,3.3,3.3,0,0,0-2.56-1,3.5,3.5,0,0,0-2.19.78,5,5,0,0,0-1.52,2,10.82,10.82,0,0,0-.7,4.19v7.2h-2.75V753.42h2.4l.22,2.43a4.87,4.87,0,0,1,2.13-2.13,6.41,6.41,0,0,1,3-.72,5.33,5.33,0,0,1,4.61,2.37,6.15,6.15,0,0,1,1,3.52Z" transform="translate(580.37 443.8)"/><path class="d" d="M688.81,769.61v-2.33h5.85V755.72h-5.21v-2.3h8v13.86h5.88v2.33ZM694,750.35v-3.84h3.87v3.84Z" transform="translate(580.37 443.8)"/><path class="d" d="M720.71,768.14a7.44,7.44,0,0,1-5.54,1.89,7.55,7.55,0,0,1-5.53-1.89,5,5,0,0,1-1.6-3.74h2.72a3.1,3.1,0,0,0,1.41,2.49,5.16,5.16,0,0,0,3.13.8,4.74,4.74,0,0,0,3.17-.93,2,2,0,0,0,.8-1.66c0-1.26-.8-2-2.4-2.24l-4.13-.61a4.91,4.91,0,0,1-3-1.5,4.15,4.15,0,0,1-1-2.79,4.27,4.27,0,0,1,1.31-3.1,6.52,6.52,0,0,1,4.93-1.86q3.65,0,5.34,2.18a5.32,5.32,0,0,1,1.12,3.07h-2.72a2.59,2.59,0,0,0-1-2,4,4,0,0,0-2.78-1,4.42,4.42,0,0,0-2.76.8,2.16,2.16,0,0,0-.89,1.69c0,1.11.71,1.78,2.14,2l4.39.67a5.33,5.33,0,0,1,2.84,1.39,4,4,0,0,1,1.22,3A4.53,4.53,0,0,1,720.71,768.14Z" transform="translate(580.37 443.8)"/><path class="d" d="M739.05,769.61V759.34q0-3.87-3.68-3.87a3.56,3.56,0,0,0-2.12.69,4.71,4.71,0,0,0-1.5,1.84,10.36,10.36,0,0,0-.64,4.16v7.45h-2.75V746.48h2.75v9.08a4.93,4.93,0,0,1,2.1-1.87A6.28,6.28,0,0,1,736,753a5.63,5.63,0,0,1,4.25,1.57A6.06,6.06,0,0,1,741.8,759v10.65Z" transform="translate(580.37 443.8)"/><path class="d" d="M756.26,755.42a5.73,5.73,0,0,1-3,2.38l-1-1.85a3.85,3.85,0,0,0,2-1.62,6.08,6.08,0,0,0,.51-2.77h-2.36v-4.64h4.67v4.64A7.68,7.68,0,0,1,756.26,755.42Z" transform="translate(580.37 443.8)"/><path class="d" d="M778.79,769.61l-.19-2.11a4.58,4.58,0,0,1-2.1,1.86,6.76,6.76,0,0,1-2.86.67,6.27,6.27,0,0,1-4.71-1.89,9.08,9.08,0,0,1-2.33-6.59,8.9,8.9,0,0,1,2.49-6.72A6.53,6.53,0,0,1,773.7,753a6.29,6.29,0,0,1,2.8.64,4.89,4.89,0,0,1,2,1.67v-8.8h2.72v23.1Zm-2-13.21a3.94,3.94,0,0,0-2.72-1,4.07,4.07,0,0,0-3,1.25,6.62,6.62,0,0,0-1.73,4.9,6.78,6.78,0,0,0,1.7,5,4.06,4.06,0,0,0,3,1.15,4,4,0,0,0,2.72-1q1.82-1.6,1.82-5.12T776.81,756.4Z" transform="translate(580.37 443.8)"/><path class="d" d="M820.31,767.87a8,8,0,0,1-5.68,2.19,8.14,8.14,0,0,1-5.86-2.43,8,8,0,0,1-2.25-3.94,27.83,27.83,0,0,1,0-10.81,8,8,0,0,1,2.25-3.94,8.45,8.45,0,0,1,11.52-.32,7.39,7.39,0,0,1,2.47,5.41h-3a4.81,4.81,0,0,0-1.31-3.2,4.92,4.92,0,0,0-3.84-1.63,5.18,5.18,0,0,0-3.84,1.72,5.65,5.65,0,0,0-1.3,2.31,11.11,11.11,0,0,0-.49,2.37c0,.64-.07,1.53-.07,2.68s0,2.05.07,2.69a11.11,11.11,0,0,0,.49,2.37,5.55,5.55,0,0,0,1.3,2.3,5.3,5.3,0,0,0,7.52.32,4.82,4.82,0,0,0,1.54-3.58h2.94A7.63,7.63,0,0,1,820.31,767.87Z" transform="translate(580.37 443.8)"/><path class="d" d="M840.2,769.83a2.28,2.28,0,0,1-1.73-.7,2.43,2.43,0,0,1-.67-1.76h-.07a5,5,0,0,1-2.16,1.94,7.07,7.07,0,0,1-3.18.72,5.67,5.67,0,0,1-4.16-1.43,4.55,4.55,0,0,1-1.44-3.34,5.09,5.09,0,0,1,1.46-3.57,6.18,6.18,0,0,1,4.33-1.71l5.06-.29v-1.18a3,3,0,0,0-.83-2.34,3.84,3.84,0,0,0-2.72-.93,4,4,0,0,0-3,1,2.92,2.92,0,0,0-.86,1.88h-2.69a4.7,4.7,0,0,1,1.5-3.32,6.75,6.75,0,0,1,5-1.8,7.1,7.1,0,0,1,3.69.88,5,5,0,0,1,2.07,2.32,6.05,6.05,0,0,1,.48,2.4v7.84c0,.73.32,1.09,1,1.09l.7-.09v2A3.9,3.9,0,0,1,840.2,769.83Zm-2.56-8-4.48.26a4.85,4.85,0,0,0-2.53.83,2.47,2.47,0,0,0-1.06,2.15,2.53,2.53,0,0,0,.8,1.93,3.48,3.48,0,0,0,2.44.75,4.52,4.52,0,0,0,3.39-1.31,5.08,5.08,0,0,0,1.44-3.65Z" transform="translate(580.37 443.8)"/><path class="d" d="M857.29,748.59a3.09,3.09,0,0,0-2.31.81,3,3,0,0,0-.8,2.13v1.89h7v2.3h-7v13.89h-2.75V755.72h-5.34v-2.3h5.34v-1.89a5.19,5.19,0,0,1,1.5-3.89,5.57,5.57,0,0,1,4-1.45,10.65,10.65,0,0,1,4.12.8v2.53A8.36,8.36,0,0,0,857.29,748.59Z" transform="translate(580.37 443.8)"/><path class="d" d="M869.09,762.38a5.3,5.3,0,0,0,1.64,4.06,4.33,4.33,0,0,0,3.1,1.22,4.59,4.59,0,0,0,3-1,3.73,3.73,0,0,0,1.34-2h2.62a6.48,6.48,0,0,1-2.46,3.87,7.28,7.28,0,0,1-4.48,1.41,7.15,7.15,0,0,1-5.12-2.11,8.52,8.52,0,0,1-2.4-6.34,8.93,8.93,0,0,1,2.4-6.5,7,7,0,0,1,5.15-2.08,6.63,6.63,0,0,1,5,2,8.85,8.85,0,0,1,2.34,6.46v1Zm7.84-5.73a4.11,4.11,0,0,0-3.1-1.31,4,4,0,0,0-3.34,1.55,5.52,5.52,0,0,0-1.3,3.25h9.12A5.06,5.06,0,0,0,876.93,756.65Z" transform="translate(580.37 443.8)"/><path class="d" d="M282.27,756.47a8.61,8.61,0,0,1-11.83,0,9.33,9.33,0,0,1-2-6.31V735.72h2.85v14.46q0,6,5.12,6a4.57,4.57,0,0,0,3.87-1.6,7.05,7.05,0,0,0,1.22-4.36V735.72h2.85v14.43A9.31,9.31,0,0,1,282.27,756.47Z" transform="translate(580.37 443.8)"/><path class="d" d="M302.19,758.41V746.92c0-1.81-.65-2.72-1.95-2.72a2.15,2.15,0,0,0-1.5.74q-1,1-1,3.9v9.57h-2.56v-11.3c0-1.94-.71-2.91-2.11-2.91q-2.53,0-2.53,4.32v9.89h-2.69V742.22h2.21l.25,1.56a3.69,3.69,0,0,1,1.36-1.42,4.09,4.09,0,0,1,2.16-.56,3.19,3.19,0,0,1,2,.67,3.31,3.31,0,0,1,1.15,1.47,4.16,4.16,0,0,1,3.81-2.14,3.64,3.64,0,0,1,3,1.28,4.77,4.77,0,0,1,1,3.07v12.26Z" transform="translate(580.37 443.8)"/><path class="d" d="M321.14,756.87a7,7,0,0,1-5.06,2,7.07,7.07,0,0,1-5.12-2,9.77,9.77,0,0,1,0-13.12,7.07,7.07,0,0,1,5.12-2,7,7,0,0,1,5.06,2,9.77,9.77,0,0,1,0,13.12Zm-2.08-11.55a4.51,4.51,0,0,0-6,0,6.4,6.4,0,0,0-1.82,5,6.48,6.48,0,0,0,1.82,5,4.49,4.49,0,0,0,6,0,7.75,7.75,0,0,0,0-10Z" transform="translate(580.37 443.8)"/><path class="d" d="M333.78,762.82A2.74,2.74,0,0,0,336,762a3.29,3.29,0,0,0,.72-2.22V744.52h-6.43v-2.3h9.18v17.72a5.33,5.33,0,0,1-1.39,3.78,5.16,5.16,0,0,1-4,1.5,9.29,9.29,0,0,1-3.81-.76V762A8.74,8.74,0,0,0,333.78,762.82ZM336,739.14V735.3h3.84v3.84Z" transform="translate(580.37 443.8)"/><path class="d" d="M361.87,758.63a2.25,2.25,0,0,1-1.72-.7,2.45,2.45,0,0,1-.68-1.76h-.06a4.93,4.93,0,0,1-2.16,1.93,7.07,7.07,0,0,1-3.18.72,5.66,5.66,0,0,1-4.16-1.42,4.56,4.56,0,0,1-1.44-3.34,5,5,0,0,1,1.45-3.57,6.12,6.12,0,0,1,4.34-1.71l5.05-.29V747.3a3,3,0,0,0-.83-2.33,3.82,3.82,0,0,0-2.72-.93,4,4,0,0,0-2.94,1,3,3,0,0,0-.87,1.89h-2.68a4.71,4.71,0,0,1,1.5-3.33,6.76,6.76,0,0,1,5-1.79,7,7,0,0,1,3.7.88,4.9,4.9,0,0,1,2.06,2.32,6.05,6.05,0,0,1,.48,2.4v7.84c0,.72.32,1.09,1,1.09l.71-.1v2A4.08,4.08,0,0,1,361.87,758.63Zm-2.56-8-4.48.26a4.82,4.82,0,0,0-2.52.83,2.43,2.43,0,0,0-1.06,2.14,2.56,2.56,0,0,0,.8,1.94,3.43,3.43,0,0,0,2.43.75,4.53,4.53,0,0,0,3.39-1.31,5.08,5.08,0,0,0,1.44-3.65Z" transform="translate(580.37 443.8)"/><path class="d" d="M401.5,756.66a8,8,0,0,1-5.67,2.2,8.48,8.48,0,0,1-8.12-6.37,28.4,28.4,0,0,1,0-10.82,8.44,8.44,0,0,1,13.78-4.25,7.32,7.32,0,0,1,2.46,5.4h-3a4.83,4.83,0,0,0-1.31-3.19,5,5,0,0,0-3.84-1.64,5.2,5.2,0,0,0-3.84,1.73,5.68,5.68,0,0,0-1.3,2.3,11.22,11.22,0,0,0-.5,2.37c0,.64-.06,1.54-.06,2.69s0,2,.06,2.69a11.22,11.22,0,0,0,.5,2.37,5.68,5.68,0,0,0,1.3,2.3,5.3,5.3,0,0,0,7.52.32,4.79,4.79,0,0,0,1.53-3.58H404A7.58,7.58,0,0,1,401.5,756.66Z" transform="translate(580.37 443.8)"/><path class="d" d="M421.39,758.63a2.25,2.25,0,0,1-1.72-.7,2.45,2.45,0,0,1-.68-1.76h-.06a4.93,4.93,0,0,1-2.16,1.93,7.07,7.07,0,0,1-3.18.72,5.66,5.66,0,0,1-4.16-1.42,4.56,4.56,0,0,1-1.44-3.34,5,5,0,0,1,1.45-3.57,6.12,6.12,0,0,1,4.34-1.71l5.05-.29V747.3A3,3,0,0,0,418,745a3.82,3.82,0,0,0-2.72-.93,4,4,0,0,0-2.94,1,3,3,0,0,0-.87,1.89h-2.68a4.71,4.71,0,0,1,1.5-3.33,6.76,6.76,0,0,1,5-1.79,7,7,0,0,1,3.7.88A4.9,4.9,0,0,1,421,745a6.05,6.05,0,0,1,.48,2.4v7.84c0,.72.32,1.09,1,1.09l.7-.1v2A4,4,0,0,1,421.39,758.63Zm-2.56-8-4.48.26a4.82,4.82,0,0,0-2.52.83,2.43,2.43,0,0,0-1.06,2.14,2.56,2.56,0,0,0,.8,1.94,3.43,3.43,0,0,0,2.43.75,4.53,4.53,0,0,0,3.39-1.31,5.08,5.08,0,0,0,1.44-3.65Z" transform="translate(580.37 443.8)"/><path class="d" d="M438.48,737.38a3.09,3.09,0,0,0-2.3.82,2.89,2.89,0,0,0-.8,2.13v1.89h7v2.3h-7v13.89h-2.75V744.52h-5.35v-2.3h5.35v-1.89a5.18,5.18,0,0,1,1.5-3.89,5.55,5.55,0,0,1,4-1.45,10.52,10.52,0,0,1,4.13.8v2.52A8.43,8.43,0,0,0,438.48,737.38Z" transform="translate(580.37 443.8)"/><path class="d" d="M450.29,751.18a5.3,5.3,0,0,0,1.63,4.06,4.34,4.34,0,0,0,3.1,1.22,4.57,4.57,0,0,0,3-1,3.8,3.8,0,0,0,1.34-2H462a6.53,6.53,0,0,1-2.47,3.88,7.31,7.31,0,0,1-4.48,1.4,7.08,7.08,0,0,1-5.11-2.11,8.5,8.5,0,0,1-2.4-6.33,8.91,8.91,0,0,1,2.4-6.5,7,7,0,0,1,5.15-2.08,6.63,6.63,0,0,1,5,2,8.87,8.87,0,0,1,2.33,6.47v1Zm7.84-5.73a4.09,4.09,0,0,0-3.11-1.31,4,4,0,0,0-3.34,1.55,5.48,5.48,0,0,0-1.29,3.25h9.11A5.1,5.1,0,0,0,458.13,745.45Z" transform="translate(580.37 443.8)"/><path class="g" d="M-516.38-414.29c0,16.29-29.51,53.39-29.51,53.39s-29.5-37.1-29.5-53.39a29.51,29.51,0,0,1,29.5-29.51A29.51,29.51,0,0,1-516.38-414.29Z" transform="translate(580.37 443.8)"/><circle class="g" cx="34.48" cy="29.51" r="14.87"/><path class="f" d="M381.5,86.68A18.48,18.48,0,0,0,363,105.16c0,10.22,18.48,33.46,18.48,33.46S400,115.38,400,105.16A18.49,18.49,0,0,0,381.5,86.68Zm0,27.8a9.32,9.32,0,1,1,9.32-9.32A9.32,9.32,0,0,1,381.5,114.48Z" transform="translate(580.37 443.8)"/><path class="f" d="M363.35,278.7a18.49,18.49,0,0,0-18.49,18.49c0,10.21,18.49,33.46,18.49,33.46s18.49-23.25,18.49-33.46A18.49,18.49,0,0,0,363.35,278.7Zm0,27.81a9.32,9.32,0,1,1,9.32-9.32A9.32,9.32,0,0,1,363.35,306.51Z" transform="translate(580.37 443.8)"/><path class="f" d="M565.73,741.69a18.49,18.49,0,0,0-18.49,18.49c0,10.22,18.49,33.46,18.49,33.46s18.48-23.24,18.48-33.46A18.49,18.49,0,0,0,565.73,741.69Zm0,27.81a9.32,9.32,0,1,1,9.32-9.32A9.32,9.32,0,0,1,565.73,769.5Z" transform="translate(580.37 443.8)"/><path class="f" d="M483.85,725.32a18.48,18.48,0,0,0-18.49,18.48c0,10.22,18.49,33.46,18.49,33.46S502.34,754,502.34,743.8A18.49,18.49,0,0,0,483.85,725.32Zm0,27.8a9.32,9.32,0,1,1,9.32-9.32A9.32,9.32,0,0,1,483.85,753.12Z" transform="translate(580.37 443.8)"/><path class="d" d="M104.79,493.64c-1.32,1.32-3.28,2-5.86,2H93.59v8.8H90.74V481.73H98.9q4.06,0,6,2.15a6.72,6.72,0,0,1,1.76,4.7A6.85,6.85,0,0,1,104.79,493.64Zm-2.39-8.23a5.54,5.54,0,0,0-3.56-1.08H93.59V493h5.28a5.37,5.37,0,0,0,3.61-1.1,4.17,4.17,0,0,0,1.28-3.35A3.83,3.83,0,0,0,102.4,485.41Z" transform="translate(580.37 443.8)"/><path class="d" d="M111.09,504.42v-2.34H117V490.53h-5.22v-2.3h8v13.85h5.89v2.34Zm5.15-19.26v-3.84h3.88v3.84Z" transform="translate(580.37 443.8)"/><path class="d" d="M132.66,497.19a5.3,5.3,0,0,0,1.63,4.06,4.37,4.37,0,0,0,3.11,1.22,4.57,4.57,0,0,0,3-1,3.81,3.81,0,0,0,1.35-1.95h2.62a6.52,6.52,0,0,1-2.46,3.87,7.3,7.3,0,0,1-4.48,1.41,7.13,7.13,0,0,1-5.12-2.11,8.52,8.52,0,0,1-2.4-6.34,8.93,8.93,0,0,1,2.4-6.5,7,7,0,0,1,5.15-2.08,6.6,6.6,0,0,1,5,2,8.85,8.85,0,0,1,2.34,6.46v1Zm7.84-5.73a4.12,4.12,0,0,0-3.1-1.31,4.06,4.06,0,0,0-3.35,1.55,5.51,5.51,0,0,0-1.29,3.25h9.12A5.15,5.15,0,0,0,140.5,491.46Z" transform="translate(580.37 443.8)"/><path class="d" d="M183.08,502.68a8.41,8.41,0,0,1-13.8-4.18,28.35,28.35,0,0,1,0-10.81,8.45,8.45,0,0,1,13.78-4.26,7.34,7.34,0,0,1,2.46,5.41h-3a4.86,4.86,0,0,0-1.31-3.2A5,5,0,0,0,177.4,484a5.18,5.18,0,0,0-3.84,1.72,5.65,5.65,0,0,0-1.3,2.31,11.22,11.22,0,0,0-.5,2.37c0,.64-.06,1.53-.06,2.68s0,2.05.06,2.69a11.22,11.22,0,0,0,.5,2.37,5.55,5.55,0,0,0,1.3,2.3,5.3,5.3,0,0,0,7.52.32,4.79,4.79,0,0,0,1.53-3.58h2.95A7.66,7.66,0,0,1,183.08,502.68Z" transform="translate(580.37 443.8)"/><path class="d" d="M202.29,493.7a3.44,3.44,0,0,0-.86-2.37,3.31,3.31,0,0,0-2.56-1.05,3.5,3.5,0,0,0-2.19.78,4.84,4.84,0,0,0-1.52,2,10.8,10.8,0,0,0-.71,4.19v7.2H191.7V488.23h2.4l.22,2.43a4.87,4.87,0,0,1,2.13-2.13,6.44,6.44,0,0,1,3-.72,5.32,5.32,0,0,1,4.61,2.37,6.13,6.13,0,0,1,1,3.52Z" transform="translate(580.37 443.8)"/><path class="d" d="M212,497.19a5.3,5.3,0,0,0,1.63,4.06,4.35,4.35,0,0,0,3.11,1.22,4.57,4.57,0,0,0,3-1,3.81,3.81,0,0,0,1.35-1.95h2.62a6.57,6.57,0,0,1-2.46,3.87,7.3,7.3,0,0,1-4.48,1.41,7.13,7.13,0,0,1-5.12-2.11,8.52,8.52,0,0,1-2.4-6.34,8.93,8.93,0,0,1,2.4-6.5,7,7,0,0,1,5.15-2.08,6.6,6.6,0,0,1,5,2,8.85,8.85,0,0,1,2.33,6.46v1Zm7.84-5.73a4.12,4.12,0,0,0-3.1-1.31,4.06,4.06,0,0,0-3.35,1.55,5.51,5.51,0,0,0-1.29,3.25h9.12A5.15,5.15,0,0,0,219.86,491.46Z" transform="translate(580.37 443.8)"/><path class="d" d="M242.64,504.65a2.26,2.26,0,0,1-1.72-.71,2.44,2.44,0,0,1-.68-1.76h-.06a5,5,0,0,1-2.16,1.94,7.07,7.07,0,0,1-3.18.72,5.66,5.66,0,0,1-4.16-1.43,4.55,4.55,0,0,1-1.44-3.34,5.08,5.08,0,0,1,1.45-3.57,6.21,6.21,0,0,1,4.34-1.71l5.05-.29v-1.18a3,3,0,0,0-.83-2.34,3.82,3.82,0,0,0-2.72-.93,4,4,0,0,0-2.94,1,3,3,0,0,0-.87,1.88H230a4.7,4.7,0,0,1,1.5-3.32,6.72,6.72,0,0,1,5-1.8,7.13,7.13,0,0,1,3.7.88,4.9,4.9,0,0,1,2.06,2.32,6.05,6.05,0,0,1,.48,2.4v7.84c0,.73.32,1.09,1,1.09l.7-.09v2A3.87,3.87,0,0,1,242.64,504.65Zm-2.56-8-4.48.26a4.82,4.82,0,0,0-2.52.83,2.45,2.45,0,0,0-1.06,2.15,2.55,2.55,0,0,0,.8,1.93,3.43,3.43,0,0,0,2.43.75,4.49,4.49,0,0,0,3.39-1.31,5.08,5.08,0,0,0,1.44-3.65Z" transform="translate(580.37 443.8)"/><path class="d" d="M258.64,504.77a4.93,4.93,0,0,1-3.88-1.48,5.27,5.27,0,0,1-1.33-3.64v-9.08h-5.06v-2.34h5.06V484l2.72-.87v5.06h6.78v2.34h-6.78v8.83a2.94,2.94,0,0,0,.75,2.12,2.78,2.78,0,0,0,2.13.79,10.2,10.2,0,0,0,4.09-1.09v2.4A8.82,8.82,0,0,1,258.64,504.77Z" transform="translate(580.37 443.8)"/><path class="d" d="M269.81,504.42v-2.34h5.86V490.53h-5.22v-2.3h8v13.85h5.89v2.34ZM275,485.16v-3.84h3.87v3.84Z" transform="translate(580.37 443.8)"/><path class="d" d="M301.11,502.89a7,7,0,0,1-5.06,1.95,7.07,7.07,0,0,1-5.12-1.95,9.77,9.77,0,0,1,0-13.12,7,7,0,0,1,5.12-2,7,7,0,0,1,5.06,2,8.77,8.77,0,0,1,2.52,6.52A8.89,8.89,0,0,1,301.11,502.89ZM299,491.33a4.51,4.51,0,0,0-6,0,6.41,6.41,0,0,0-1.82,5,6.5,6.5,0,0,0,1.82,5,4.51,4.51,0,0,0,6,0,7.76,7.76,0,0,0,0-10Z" transform="translate(580.37 443.8)"/><path class="d" d="M320,504.42V494.15c0-2.58-1.19-3.87-3.55-3.87a3.51,3.51,0,0,0-2.13.72,4.82,4.82,0,0,0-1.52,1.87,10.13,10.13,0,0,0-.7,4.16v7.39h-2.76V488.23h2.4l.23,2.43a5,5,0,0,1,2.12-2.09,6.13,6.13,0,0,1,2.93-.76,5.64,5.64,0,0,1,4.26,1.57,6.1,6.1,0,0,1,1.5,4.39v10.65Z" transform="translate(580.37 443.8)"/><path class="d" d="M341.39,503a7.41,7.41,0,0,1-5.53,1.89,7.58,7.58,0,0,1-5.54-1.89,5,5,0,0,1-1.6-3.74h2.72a3.1,3.1,0,0,0,1.41,2.49,5.17,5.17,0,0,0,3.14.8,4.73,4.73,0,0,0,3.16-.93,2,2,0,0,0,.8-1.66c0-1.26-.8-2-2.4-2.24l-4.12-.61a4.93,4.93,0,0,1-3-1.5,4.15,4.15,0,0,1-1-2.79,4.25,4.25,0,0,1,1.31-3.1,6.54,6.54,0,0,1,4.93-1.86q3.64,0,5.34,2.18a5.25,5.25,0,0,1,1.12,3.07h-2.72a2.59,2.59,0,0,0-1-2,4,4,0,0,0-2.78-1,4.31,4.31,0,0,0-2.75.8,2.14,2.14,0,0,0-.9,1.69c0,1.11.72,1.79,2.15,2l4.38.67a5.32,5.32,0,0,1,2.85,1.39,4,4,0,0,1,1.21,3A4.49,4.49,0,0,1,341.39,503Z" transform="translate(580.37 443.8)"/><path class="f" d="M389.69,475.59a18.49,18.49,0,0,0-18.49,18.49c0,10.21,18.49,33.46,18.49,33.46s18.49-23.25,18.49-33.46A18.49,18.49,0,0,0,389.69,475.59Zm0,27.81a9.32,9.32,0,1,1,9.32-9.32A9.32,9.32,0,0,1,389.69,503.4Z" transform="translate(580.37 443.8)"/><path class="f" d="M629.18,901.35a18.49,18.49,0,0,0-18.49,18.49c0,10.22,18.49,33.46,18.49,33.46s18.49-23.24,18.49-33.46A18.49,18.49,0,0,0,629.18,901.35Zm0,27.81a9.32,9.32,0,1,1,9.32-9.32A9.32,9.32,0,0,1,629.18,929.16Z" transform="translate(580.37 443.8)"/><path class="f" d="M964.88,567.7a18.49,18.49,0,0,0-18.49,18.49c0,10.22,18.49,33.46,18.49,33.46s18.48-23.24,18.48-33.46A18.5,18.5,0,0,0,964.88,567.7Zm0,27.81a9.32,9.32,0,1,1,9.32-9.32A9.32,9.32,0,0,1,964.88,595.51Z" transform="translate(580.37 443.8)"/><path class="f" d="M550.35,496.36l-17.86-30.1c-12-20.28-23-19.18-33.79-19.18-4,0,3.53-5.14-3.77-12.36-1.37-1.37-2.57-4.38-3.53-7.28a1,1,0,0,0-1.94,0c-1,2.9-2.16,5.91-3.53,7.28-7.3,7.22.27,12.36-3.77,12.36-10.8,0-21.75-1.1-33.79,19.18l-17.87,30.1c-2.93,4.91,8.88,3.24,14.37-6,2.24-3.76,4.47-9,11.22-9a10.27,10.27,0,0,0,8.83-5c9.58-16.14,16.38-9.88,14.14-6.11l-10.79,15.29c-7.7,13,52,13,44.3,0l-10.79-15.29c-2.23-3.78,4.56-10,14.14,6.11a10.27,10.27,0,0,0,8.83,5c6.75,0,9,5.29,11.22,9C541.46,499.6,553.27,501.27,550.35,496.36Z" transform="translate(580.37 443.8)"/><rect class="a" x="580.26" y="442.67" width="1082.55" height="1082.55"/><line class="l" x1="1403.92" y1="789.39" x2="1456.35" y2="820.36"/><polyline class="l" points="1437.62 808.29 1458.56 773.05 1482.56 789.39"/><line class="l" x1="1391.15" y1="895.61" x2="1443.75" y2="812.88"/><line class="l" x1="1405.45" y1="872.12" x2="1506.56" y2="933.9"/><line class="l" x1="1561.71" y1="996.2" x2="1589.79" y2="939.52"/><line class="l" x1="1635.75" y1="906.33" x2="1684.77" y2="934.93"/><line class="l" x1="1529.54" y1="735.78" x2="1509.62" y2="771.78"/><line class="l" x1="1610.73" y1="1022.25" x2="1672" y2="924.2"/></g></svg>