<svg xmlns="http://www.w3.org/2000/svg" width="19.327" height="19.327" viewBox="0 0 19.327 19.327">
  <path id="Icon_awesome-facebook-square" data-name="Icon awesome-facebook-square" d="M17.256,2.25H2.071A2.071,2.071,0,0,0,0,4.321V19.506a2.071,2.071,0,0,0,2.071,2.071H7.992V15.006H5.274V11.913H7.992V9.556c0-2.681,1.6-4.162,4.041-4.162a16.465,16.465,0,0,1,2.4.209V8.234H13.079a1.546,1.546,0,0,0-1.744,1.671v2.008H14.3l-.475,3.093H11.335v6.571h5.921a2.071,2.071,0,0,0,2.071-2.071V4.321A2.071,2.071,0,0,0,17.256,2.25Z" transform="translate(0 -2.25)" fill="#001a7d"/>
</svg>
