<svg xmlns="http://www.w3.org/2000/svg" width="106" height="17.18" viewBox="0 0 106 17.18">
  <g id="Group_224" data-name="Group 224" transform="translate(-238.835 -268.125)">
    <g id="Group_186" data-name="Group 186" transform="translate(238.835 268.125)">
      <path id="Path_402" data-name="Path 402" d="M244.156,268.125a3.426,3.426,0,0,1,2.548,1.134,3.8,3.8,0,0,1,0,5.32,3.425,3.425,0,0,1-2.548,1.135h-3.427v5.253h-1.894V268.125Zm0,1.751h-3.427v4.053h3.427a1.731,1.731,0,0,0,1.36-.618,2.041,2.041,0,0,0,0-2.8,1.773,1.773,0,0,0-1.36-.635" transform="translate(-238.835 -268.125)" fill="#001a7d"/>
      <path id="Path_403" data-name="Path 403" d="M279.5,285.452a2.294,2.294,0,0,0-1.24-.384,2.108,2.108,0,0,0-1.515.634,2.2,2.2,0,0,0-.655,1.518v4.636h-1.722V283.6h1.722v.985a2.829,2.829,0,0,1,2.342-1.1,3.98,3.98,0,0,1,1.723.368Z" transform="translate(-264.026 -279.013)" fill="#001a7d"/>
      <path id="Path_404" data-name="Path 404" d="M302.751,290.738a4.422,4.422,0,0,1-6.129,0,4.233,4.233,0,0,1,0-6.021,4.422,4.422,0,0,1,6.129,0,4.233,4.233,0,0,1,0,6.021m-1.256-1.2a2.428,2.428,0,0,0,.792-1.8,2.6,2.6,0,0,0-5.2,0,2.633,2.633,0,0,0,2.6,2.568,2.469,2.469,0,0,0,1.808-.767" transform="translate(-278.913 -279.013)" fill="#001a7d"/>
      <path id="Path_405" data-name="Path 405" d="M331.232,290.973v5.221h-1.705V283.6h1.705v.884a2.66,2.66,0,0,1,.309-.283,4.636,4.636,0,0,1,.9-.434,3.824,3.824,0,0,1,1.43-.283,4.172,4.172,0,0,1,3.047,1.234,4.232,4.232,0,0,1,0,6.02,4.172,4.172,0,0,1-3.047,1.234,4.086,4.086,0,0,1-2.343-.75Zm-.017-3.252a2.46,2.46,0,0,0,.792,1.817,2.582,2.582,0,0,0,1.86.768,2.635,2.635,0,0,0,2.6-2.585,2.418,2.418,0,0,0-.775-1.8,2.45,2.45,0,0,0-1.824-.767,2.64,2.64,0,0,0-1.86.767,2.426,2.426,0,0,0-.792,1.8" transform="translate(-303.133 -279.015)" fill="#001a7d"/>
      <path id="Path_406" data-name="Path 406" d="M371.74,288.549h-6.681a2.659,2.659,0,0,0,2.462,1.751,2.453,2.453,0,0,0,1.826-.767l.017-.016,1.24,1.2a4.447,4.447,0,0,1-6.148.033,4.294,4.294,0,0,1,0-6.037,4.239,4.239,0,0,1,3.065-1.235,4.285,4.285,0,0,1,4.219,5.071m-1.773-1.7a2.62,2.62,0,0,0-4.907,0Z" transform="translate(-327.017 -279.009)" fill="#001a7d"/>
      <path id="Path_407" data-name="Path 407" d="M402.944,285.452a2.294,2.294,0,0,0-1.24-.384,2.107,2.107,0,0,0-1.515.634,2.2,2.2,0,0,0-.655,1.518v4.636h-1.721V283.6h1.721v.985a2.829,2.829,0,0,1,2.342-1.1,5.655,5.655,0,0,1,2.067.368Z" transform="translate(-351.545 -279.013)" fill="#001a7d"/>
      <g id="Group_185" data-name="Group 185" transform="translate(61.042 0)">
        <path id="Path_408" data-name="Path 408" d="M448.579,280.969V268.126h1.895v11.208h6.181v1.635Z" transform="translate(-448.579 -268.126)" fill="#001a7d"/>
        <rect id="Rectangle_79" data-name="Rectangle 79" width="1.722" height="8.256" transform="translate(10.044 4.57)" fill="#001a7d"/>
        <rect id="Rectangle_80" data-name="Rectangle 80" width="1.722" height="8.256" transform="translate(23.641 4.57)" fill="#001a7d"/>
        <path id="Path_409" data-name="Path 409" d="M548.046,291.858v-4.62a2.057,2.057,0,0,0-.655-1.518,2.1,2.1,0,0,0-1.549-.65,2.041,2.041,0,0,0-1.533.65,2.009,2.009,0,0,0-.637,1.5v4.636H541.95v-8.24h1.721v.968a2.827,2.827,0,0,1,2.342-1.1,3.5,3.5,0,0,1,2.686,1.068,3.768,3.768,0,0,1,1.033,2.768v4.537Z" transform="translate(-514.776 -279.015)" fill="#001a7d"/>
        <path id="Path_410" data-name="Path 410" d="M582,283.6v8.389a3.961,3.961,0,0,1-1.257,2.968,4.268,4.268,0,0,1-3.064,1.235,4.187,4.187,0,0,1-3.066-1.235l1.205-1.167a2.658,2.658,0,0,0,3.7,0,2.368,2.368,0,0,0,.775-1.8v-1.018a1.934,1.934,0,0,1-.328.283,4.363,4.363,0,0,1-2.308.717,4.232,4.232,0,0,1-3.065-1.217,4.295,4.295,0,0,1,0-6.037,4.244,4.244,0,0,1,3.065-1.234,4.076,4.076,0,0,1,2.342.751l.293.25V283.6Zm-1.687,4.136a2.428,2.428,0,0,0-.792-1.8,2.6,2.6,0,0,0-1.861-.783,2.633,2.633,0,0,0-2.6,2.584,2.419,2.419,0,0,0,.775,1.8,2.453,2.453,0,0,0,1.825.768,2.644,2.644,0,0,0,1.861-.768,2.428,2.428,0,0,0,.792-1.8" transform="translate(-537.039 -279.015)" fill="#001a7d"/>
        <path id="Path_411" data-name="Path 411" d="M482.482,273.92a1.131,1.131,0,0,1,0-1.584,1.157,1.157,0,0,1,1.635,0,1.073,1.073,0,0,1,0,1.584,1.224,1.224,0,0,1-1.635,0" transform="translate(-472.386 -270.871)" fill="#001a7d"/>
        <path id="Path_412" data-name="Path 412" d="M529.2,273.92a1.132,1.132,0,0,1,0-1.584,1.157,1.157,0,0,1,1.635,0,1.073,1.073,0,0,1,0,1.584,1.224,1.224,0,0,1-1.635,0" transform="translate(-505.507 -270.871)" fill="#001a7d"/>
      </g>
    </g>
    <path id="Path_413" data-name="Path 413" d="M498.309,292.142l-3.53-8.256h1.877l2.428,5.5,2.377-5.5h1.877l-3.5,8.256Z" transform="translate(-181.455 -11.174)" fill="#001a7d"/>
  </g>
</svg>
