<svg xmlns="http://www.w3.org/2000/svg" width="19.73" height="14.984" viewBox="0 0 19.73 14.984">
  <g id="Icon_ionic-ios-menu" data-name="Icon ionic-ios-menu" transform="translate(-2.5 -4.125)">
    <path id="Path_441" data-name="Path 441" d="M18.724,6.378,1.176,2.221a1.574,1.574,0,0,1-.987-1.2h0C.085.457.359.085.8.189L18.346,4.347a1.574,1.574,0,0,1,.987,1.2h0C19.437,6.11,19.163,6.482,18.724,6.378Z" transform="translate(5.553 3.893) rotate(30)" fill="#fff5e0"/>
    <path id="Path_443" data-name="Path 443" d="M17.968,4.253.42,8.41c-.439.1-.713-.268-.609-.827h0A1.574,1.574,0,0,1,.8,6.378L18.346,2.221c.439-.1.713.268.609.827h0A1.574,1.574,0,0,1,17.968,4.253Z" transform="translate(1.581 11.705) rotate(-30)" fill="#fff5e0"/>
  </g>
</svg>
