<svg xmlns="http://www.w3.org/2000/svg" width="138.885" height="135.281" viewBox="0 0 138.885 135.281"><defs><style>.a{fill:#f03d26;}</style></defs><path class="a" d="M447.1,310.866c-4.823-8.125-16.184-27.271-17.958-30.257-12.1-20.391-23.109-19.285-33.967-19.285-4.065,0,3.545-5.169-3.794-12.436-1.376-1.376-2.588-4.4-3.547-7.318a1.034,1.034,0,0,0-1.961,0c-.959,2.92-2.171,5.942-3.547,7.318-7.34,7.267.27,12.436-3.794,12.436-10.858,0-21.866-1.106-33.967,19.285-1.774,2.986-13.135,22.132-17.958,30.257-2.94,4.939,8.928,3.265,14.451-6.045,2.245-3.785,4.491-9.105,11.278-9.105a10.326,10.326,0,0,0,8.877-5.054c9.636-16.225,16.465-9.94,14.214-6.145l-10.845,15.37c-7.742,13.041,52.287,13.042,44.543,0l-10.845-15.37c-2.251-3.8,4.578-10.08,14.214,6.145a10.326,10.326,0,0,0,8.876,5.054c6.787,0,9.033,5.32,11.278,9.105C438.175,314.132,450.042,315.806,447.1,310.866Z" transform="translate(-32.549 -397.234) rotate(42)"/></svg>