<svg xmlns="http://www.w3.org/2000/svg" width="35" height="20.962" viewBox="0 0 35 20.962">
  <path id="Path_393" data-name="Path 393" d="M361.016,261.044l-5.177-8.722c-3.488-5.878-6.662-5.559-9.792-5.559-1.172,0,1.022-1.49-1.094-3.585a6.043,6.043,0,0,1-1.022-2.109.3.3,0,0,0-.565,0,6.042,6.042,0,0,1-1.022,2.109c-2.116,2.095.078,3.585-1.094,3.585-3.13,0-6.3-.319-9.792,5.559l-5.177,8.722c-.848,1.424,2.574.941,4.166-1.743.647-1.091,1.295-2.625,3.251-2.625a2.977,2.977,0,0,0,2.559-1.457c2.778-4.677,4.746-2.866,4.1-1.771l-3.126,4.431c-2.232,3.759,15.073,3.76,12.841,0l-3.126-4.431c-.649-1.094,1.32-2.906,4.1,1.771a2.977,2.977,0,0,0,2.559,1.457c1.956,0,2.6,1.534,3.251,2.625C358.443,261.986,361.864,262.468,361.016,261.044Z" transform="translate(-326.149 -240.865)" fill="#001a7d"/>
</svg>
