<svg xmlns="http://www.w3.org/2000/svg" width="130.76" height="78.314" viewBox="0 0 130.76 78.314">
  <path id="Path_438" data-name="Path 438" d="M456.413,316.255c-5.195-8.751-17.43-29.37-19.34-32.586-13.032-21.96-24.888-20.769-36.581-20.769-4.377,0,3.818-5.567-4.086-13.393-1.481-1.482-2.787-4.736-3.82-7.881a1.114,1.114,0,0,0-2.112,0c-1.033,3.145-2.338,6.4-3.819,7.881-7.9,7.826.291,13.393-4.087,13.393-11.694,0-23.549-1.191-36.581,20.769-1.91,3.216-14.146,23.835-19.34,32.586-3.166,5.32,9.615,3.517,15.563-6.511,2.418-4.076,4.837-9.806,12.146-9.806a11.121,11.121,0,0,0,9.56-5.443c10.378-17.474,17.733-10.705,15.308-6.618l-11.68,16.553c-8.338,14.045,56.311,14.046,47.972,0l-11.68-16.553c-2.424-4.087,4.931-10.856,15.308,6.618a11.121,11.121,0,0,0,9.56,5.443c7.309,0,9.728,5.73,12.146,9.806C446.8,319.772,459.579,321.574,456.413,316.255Z" transform="translate(-326.149 -240.865)" fill="#ff782e"/>
</svg>
