<svg xmlns="http://www.w3.org/2000/svg" width="13.333" height="13.333" viewBox="0 0 13.333 13.333">
  <path id="Icon_awesome-phone-alt" data-name="Icon awesome-phone-alt" d="M12.953,9.422l-2.917-1.25a.625.625,0,0,0-.729.18L8.016,9.93A9.653,9.653,0,0,1,3.4,5.316L4.979,4.024a.623.623,0,0,0,.18-.729L3.909.378A.629.629,0,0,0,3.193.016L.484.641A.625.625,0,0,0,0,1.25,12.082,12.082,0,0,0,12.084,13.334a.625.625,0,0,0,.609-.484l.625-2.708A.633.633,0,0,0,12.953,9.422Z" transform="translate(0 0)" fill="#fff5e0"/>
</svg>
