<svg xmlns="http://www.w3.org/2000/svg" width="92.999" height="55.699" viewBox="0 0 92.999 55.699"><defs><style>.a{fill:#f03d26;}</style></defs><path class="a" d="M418.8,294.484c-3.695-6.224-12.4-20.888-13.755-23.176-9.269-15.619-17.7-14.772-26.017-14.772-3.113,0,2.716-3.96-2.906-9.525-1.054-1.054-1.982-3.368-2.717-5.605a.792.792,0,0,0-1.5,0c-.734,2.237-1.663,4.551-2.716,5.605-5.622,5.566.207,9.525-2.906,9.525-8.317,0-16.748-.847-26.017,14.772C338.9,273.6,330.2,288.26,326.5,294.484c-2.252,3.783,6.838,2.5,11.069-4.631,1.72-2.9,3.44-6.974,8.639-6.974a7.91,7.91,0,0,0,6.8-3.871c7.381-12.428,12.612-7.614,10.888-4.707l-8.307,11.773c-5.93,9.989,40.05,9.99,34.119,0L381.4,274.3c-1.724-2.907,3.507-7.721,10.888,4.707a7.909,7.909,0,0,0,6.8,3.871c5.2,0,6.919,4.075,8.639,6.974C411.957,296.985,421.047,298.267,418.8,294.484Z" transform="translate(-326.149 -240.865)"/></svg>